<?xml version="1.0" encoding="UTF-8"?>
<svg id="Layer_1" data-name="Layer 1" xmlns="http://www.w3.org/2000/svg" xmlns:xlink="http://www.w3.org/1999/xlink" viewBox="0 0 220.22 72.93">
  <defs>
    <style>
      .cls-1, .cls-2 {
        fill: none;
      }

      .cls-3 {
        fill: #af1e23;
      }

      .cls-4 {
        fill: #231f20;
      }

      .cls-5 {
        fill: #003660;
      }

      .cls-6 {
        clip-path: url(#clippath-1);
      }

      .cls-7 {
        fill: #fff;
      }

      .cls-2 {
        stroke: #af1e23;
        stroke-miterlimit: 10;
      }

      .cls-8 {
        fill: #009bdb;
      }

      .cls-9 {
        clip-path: url(#clippath);
      }
    </style>
    <clipPath id="clippath">
      <rect class="cls-1" x="3.63" y="7.52" width="57.5" height="58.37"/>
    </clipPath>
    <clipPath id="clippath-1">
      <rect class="cls-1" x="3.63" y="7.52" width="57.5" height="58.37"/>
    </clipPath>
  </defs>
  <g id="Artwork_7" data-name="Artwork 7">
    <g class="cls-9">
      <g class="cls-6">
        <path class="cls-8" d="M10.25,21.04c.63.51,1.31.64,1.84-.02.53-.66.26-1.29-.37-1.8l-1.54-1.25-.39.48,1.44,1.17c.32.26.74.65.42,1.05-.33.41-.8.07-1.12-.19l-1.44-1.17-.39.48,1.54,1.25Z"/>
        <path class="cls-8" d="M12.08,17.61l-.41.42,1.55,1.5.41-.42-.77-.74c-.19-.18-.48-.47-.24-.72.23-.24.46,0,.65.18l.82.79.41-.42-.95-.92c-.36-.35-.77-.52-1.15-.12-.15.15-.23.35-.18.57h0s-.14-.13-.14-.13Z"/>
        <path class="cls-8" d="M14.04,15.76l-.43.39,1.44,1.6.43-.39-1.44-1.6ZM12.98,15.01c-.14.13-.15.36-.01.5.14.15.36.17.5.04.14-.13.15-.35.01-.5-.13-.15-.36-.17-.5-.04"/>
        <polygon class="cls-8" points="15.04 14.96 14.53 15.35 16.6 16.54 16.84 16.36 16.27 14.04 15.76 14.42 16.16 15.65 15.04 14.96"/>
        <path class="cls-8" d="M18.95,13.73l-.04-.06c-.34-.55-.88-.84-1.45-.48-.56.35-.57.96-.22,1.52.35.56.93.75,1.47.42.36-.23.54-.62.43-1.06l-.51.21c.02.19-.01.36-.18.46-.26.16-.51-.05-.65-.28l1.14-.72ZM17.62,14.11c-.09-.21-.1-.45.1-.58.19-.12.42,0,.56.16l-.66.41Z"/>
        <path class="cls-8" d="M19.56,12.1l-.53.26.95,1.94.53-.26-.43-.87c-.15-.3-.27-.66.09-.84.08-.04.17-.05.25-.04l-.19-.55c-.08,0-.17.02-.24.06-.2.09-.31.27-.33.49h0s-.1-.2-.1-.2Z"/>
        <path class="cls-8" d="M22.05,11.15c-.21-.08-.49-.04-.7.04-.36.14-.49.52-.34.89.13.32.37.36.59.37.22,0,.43-.03.5.15.05.13,0,.26-.13.3-.16.06-.34.01-.5-.07l-.11.44c.25.14.55.17.81.06.4-.16.63-.56.45-1.01-.14-.35-.39-.41-.62-.42-.23-.01-.44.03-.5-.12-.04-.1.02-.21.11-.24.11-.04.23-.02.34.02l.1-.42Z"/>
        <path class="cls-8" d="M23.3,10.54l-.55.19.7,2.04.55-.19-.7-2.04ZM22.61,9.43c-.18.06-.27.27-.21.46.07.19.26.29.45.23.18-.06.27-.27.21-.46-.06-.19-.26-.29-.45-.23"/>
        <polygon class="cls-8" points="24.8 10.61 25.15 10.5 24.99 10.01 24.65 10.11 24.44 9.41 23.88 9.59 24.09 10.28 23.9 10.34 24.05 10.84 24.24 10.78 24.72 12.35 25.28 12.18 24.8 10.61"/>
        <polygon class="cls-8" points="26.54 11.54 26.19 13.14 26.82 13 27.59 9.45 26.95 9.59 26.69 10.9 25.96 9.8 25.31 9.94 26.54 11.54"/>
        <path class="cls-8" d="M30.78,9.08c-.64.02-1.06.52-1.04,1.19.02.67.47,1.13,1.12,1.11.64-.02,1.06-.52,1.04-1.18-.02-.67-.48-1.14-1.12-1.11M30.8,9.62c.3-.01.49.29.51.59.01.29-.16.61-.46.62-.3.01-.5-.3-.51-.59-.01-.3.16-.61.46-.62"/>
        <path class="cls-8" d="M33.15,9.65l.47.02.02-.52-.47-.02.02-.55c0-.18-.01-.53.25-.52.09,0,.16.04.24.08l.02-.55c-.09-.05-.18-.08-.28-.08-.56-.02-.79.43-.81.96l-.02.63h-.2s-.02.51-.02.51h.2s-.06,1.65-.06,1.65l.58.02.06-1.64Z"/>
        <path class="cls-8" d="M37.97,8.62c-.19-.15-.42-.26-.66-.3-.91-.14-1.66.58-1.81,1.51-.14.9.39,1.8,1.26,1.94.25.04.49,0,.74-.09l.12-.76c-.2.18-.48.28-.74.24-.57-.09-.83-.69-.74-1.25.09-.57.51-1.08,1.09-.99.26.04.5.21.63.45l.12-.76Z"/>
        <path class="cls-8" d="M40.66,10.47l-.55-.17-.06.19c-.09-.21-.26-.36-.47-.43-.56-.17-1.06.27-1.22.82-.17.56,0,1.21.57,1.38.2.06.44.03.61-.1h0s-.06.19-.06.19l.55.17.62-2.07ZM39.21,11.79c-.29-.09-.37-.44-.29-.72.08-.28.35-.52.64-.44.29.09.38.44.29.72-.08.28-.36.53-.64.44"/>
        <path class="cls-8" d="M42.06,10.95l-.54-.22-1.23,3.07.54.22.5-1.26h0c.04.21.21.38.41.46.56.23,1.09-.18,1.31-.73.21-.53.09-1.19-.45-1.4-.2-.08-.44-.07-.63.04l.07-.18ZM41.83,12.68c-.28-.11-.33-.47-.22-.74.11-.27.39-.49.67-.38.28.11.33.47.23.74-.11.27-.4.5-.68.38"/>
        <path class="cls-8" d="M45.24,13.75l.03-.07c.3-.58.28-1.18-.31-1.49-.59-.31-1.12,0-1.43.57-.31.58-.18,1.18.38,1.48.38.2.81.15,1.14-.16l-.43-.33c-.15.11-.31.17-.48.08-.27-.14-.22-.46-.09-.7l1.19.63ZM44.24,12.79c.13-.18.34-.31.55-.2.2.11.22.36.14.57l-.69-.36Z"/>
        <polygon class="cls-8" points="48.91 14.04 49.42 14.41 49.75 13.95 48.22 12.85 47.89 13.31 48.41 13.68 46.8 15.91 47.3 16.27 48.91 14.04"/>
        <path class="cls-8" d="M50.12,15.66c-.49-.41-1.13-.33-1.57.19-.43.51-.4,1.16.09,1.57.49.41,1.13.33,1.56-.19.43-.52.4-1.16-.08-1.58M49.77,16.08c.23.19.17.55-.02.78-.19.22-.53.34-.76.15-.23-.19-.17-.55.02-.77.19-.23.53-.35.76-.15"/>
        <polygon class="cls-8" points="51.76 17.25 51.33 16.79 50.36 18.98 50.57 19.2 51.86 18.66 51.2 19.88 51.4 20.09 53.66 19.29 53.23 18.82 52.01 19.37 52.64 18.09 52.45 17.88 51.14 18.41 51.76 17.25"/>
        <path class="cls-8" d="M54.41,20.35l-.34-.47-1.75,1.27.34.47.86-.63c.21-.15.54-.39.75-.11.19.27-.08.45-.29.61l-.92.67.34.47,1.07-.78c.41-.29.64-.66.32-1.11-.12-.17-.3-.29-.53-.27h0s.16-.12.16-.12Z"/>
        <path class="cls-8" d="M54.96,24.19c.13.24.45.33.71.18.26-.14.35-.45.22-.7-.14-.25-.45-.33-.71-.18-.26.14-.35.45-.22.69"/>
        <path class="cls-8" d="M57.83,26.42l-.22-.54-2,.81.22.54,2-.81ZM58.9,25.67c-.07-.18-.28-.26-.47-.18-.19.08-.28.28-.21.46.07.18.28.26.47.18.18-.07.28-.28.21-.46"/>
        <polygon class="cls-8" points="57.8 28.16 56.36 28.62 56.55 29.21 57.99 28.74 60.01 29.13 59.79 28.45 58.5 28.23 59.43 27.35 59.21 26.67 57.8 28.16"/>
        <path class="cls-8" d="M59.03,29.96l-1.24.26c-.62.13-.87.5-.75,1.1.13.6.51.83,1.13.7l1.24-.26-.12-.57-1.14.24c-.24.05-.54.08-.6-.21-.06-.29.22-.39.46-.44l1.14-.24-.12-.57Z"/>
        <path class="cls-8" d="M59.66,33.29l-.07-.58-2.14.26.07.58,1.06-.13c.26-.03.66-.08.71.27.04.33-.29.36-.55.39l-1.13.14.07.58,1.31-.16c.5-.06.88-.27.82-.82-.03-.21-.12-.4-.33-.5h0s.2-.03.2-.03Z"/>
        <path class="cls-8" d="M59.87,36.12l-.02-.58-2.16.08.02.58,2.16-.08ZM61.13,35.79c0-.19-.18-.34-.38-.33-.2,0-.36.17-.35.36,0,.19.18.34.38.33.2,0,.36-.17.35-.36"/>
        <polygon class="cls-8" points="59.89 37.43 59.91 36.79 57.67 37.65 57.66 37.95 59.83 38.97 59.85 38.33 58.65 37.87 59.89 37.43"/>
        <path class="cls-8" d="M58.34,41.36h.07c.64.1,1.2-.12,1.3-.79.09-.66-.37-1.06-1.02-1.15-.65-.09-1.17.23-1.26.86-.06.43.13.82.54,1.02l.17-.52c-.16-.1-.26-.24-.24-.43.04-.3.36-.36.63-.32l-.19,1.34ZM58.91,40.09c.22.06.41.22.38.45-.03.22-.26.33-.49.32l.11-.77Z"/>
        <path class="cls-8" d="M58.95,43.53c.19-.13.31-.39.36-.6.08-.38-.15-.7-.55-.78-.34-.07-.51.1-.64.28-.13.18-.22.37-.4.33-.14-.03-.21-.15-.18-.28.04-.17.18-.29.34-.37l-.3-.34c-.26.13-.45.36-.5.63-.09.42.11.84.58.94.37.08.56-.1.69-.28.14-.18.23-.38.38-.35.1.02.16.13.14.23-.02.11-.11.21-.21.27l.3.32Z"/>
        <path class="cls-8" d="M58.68,44.98l.17-.56-2.07-.62-.17.56,2.07.62ZM59.99,45.07c.06-.18-.06-.38-.25-.44-.19-.06-.39.04-.45.23-.06.18.06.38.25.44.19.06.39-.04.45-.23"/>
        <polygon class="cls-8" points="57.73 46.24 57.62 46.58 58.11 46.75 58.22 46.41 58.92 46.64 59.1 46.09 58.41 45.85 58.48 45.66 57.99 45.5 57.92 45.69 56.37 45.16 56.18 45.71 57.73 46.24"/>
        <path class="cls-8" d="M59.28,48.01l-3.41-1.5-.24.54.98.43c.24.11.61.27.47.59-.13.3-.43.16-.67.05l-1.05-.46-.24.53,1.21.53c.46.2.9.22,1.12-.28.08-.19.1-.41-.01-.59h0s1.6.7,1.6.7l.24-.54Z"/>
        <path class="cls-8" d="M56.36,50.47l.28-.51-1.89-1.04-.28.51,1.89,1.04ZM57.61,50.82c.09-.17.02-.38-.15-.48-.18-.1-.39-.04-.49.13-.09.17-.02.38.15.48.17.1.39.04.49-.13"/>
        <polygon class="cls-8" points="53.26 51.94 52.45 50.53 52.07 51.05 53.91 54.18 54.29 53.65 53.59 52.51 54.87 52.83 55.26 52.28 53.26 51.94"/>
        <path class="cls-8" d="M52.09,56.22l.39-.43-.15-.14c.23.01.44-.08.59-.24.4-.43.21-1.07-.21-1.46-.43-.39-1.09-.53-1.49-.09-.14.16-.22.38-.18.59h0s-.15-.13-.15-.13l-.39.43,1.59,1.46ZM51.52,54.34c.2-.22.56-.14.78.05.21.2.32.54.12.76-.2.22-.56.15-.77-.05-.21-.2-.32-.55-.12-.77"/>
        <path class="cls-8" d="M50.34,57.68c.23,0,.48-.13.64-.28.28-.26.28-.66,0-.96-.24-.26-.47-.21-.68-.14-.21.07-.39.18-.52.04-.09-.1-.08-.24.01-.33.13-.12.32-.13.49-.11l-.05-.45c-.29-.05-.57.04-.78.22-.32.29-.39.75-.07,1.1.25.28.51.24.73.17.22-.07.41-.18.51-.06.07.08.05.2-.02.27-.09.08-.21.1-.33.1l.06.43Z"/>
        <path class="cls-8" d="M47.54,58.59l.05.06c.4.52.95.75,1.49.34.53-.41.47-1.01.07-1.53-.4-.52-1-.66-1.5-.27-.34.26-.48.67-.33,1.1l.48-.26c-.04-.18-.02-.36.13-.47.24-.19.51,0,.68.21l-1.07.82ZM48.83,58.08c.11.2.14.44-.05.58-.18.14-.42.05-.57-.11l.62-.48Z"/>
        <polygon class="cls-8" points="46.83 60.2 46.84 60.2 47.57 61.39 48.09 61.07 46.36 58.24 45.84 58.56 46.61 59.83 46.61 59.84 44.97 59.09 44.3 59.51 46.31 60.37 46.09 62.3 46.73 61.9 46.83 60.2"/>
        <path class="cls-8" d="M42.98,62.51l.52-.25-.09-.18c.2.1.44.09.63,0,.53-.25.6-.91.35-1.43-.25-.53-.81-.9-1.35-.64-.19.09-.35.27-.39.48h0s-.08-.18-.08-.18l-.52.25.93,1.95ZM43.17,60.56c.27-.13.57.08.7.34.12.26.09.62-.18.75-.27.13-.58-.07-.7-.33s-.09-.63.18-.76"/>
        <path class="cls-8" d="M41.42,63.1l.55-.19-1.05-3.14-.55.19.43,1.28h0c-.17-.13-.41-.15-.61-.08-.57.19-.72.84-.53,1.4.18.54.7.97,1.25.78.21-.07.38-.23.45-.43l.06.19ZM40.48,61.64c.29-.1.56.15.65.42.09.28.02.63-.27.72-.29.1-.56-.14-.65-.42-.09-.28-.02-.63.27-.73"/>
        <path class="cls-8" d="M37.11,64.26l.56-.12-.04-.2c.18.14.41.19.62.15.58-.12.79-.75.67-1.31-.12-.57-.58-1.06-1.17-.94-.21.05-.4.19-.49.38h0s-.04-.19-.04-.19l-.56.12.46,2.11ZM37.74,62.4c.29-.06.54.21.6.49.06.28-.05.63-.35.69-.29.06-.54-.2-.61-.49-.06-.28.06-.63.35-.7"/>
        <path class="cls-8" d="M34.37,62.98c-.27.02-.48.28-.46.57.03.29.27.51.55.48.28-.02.48-.28.45-.57-.03-.29-.27-.51-.55-.48"/>
        <path class="cls-8" d="M32.38,63.91c.03-.81-.28-1.43-1.12-1.46-.84-.03-1.19.57-1.22,1.38l-.07,1.98.61.02.06-1.85c.01-.41.07-.98.59-.97.52.02.54.59.52,1l-.06,1.85.61.02.07-1.98Z"/>
        <path class="cls-8" d="M28.45,64.47l.58.08.3-2.14-.58-.08-.15,1.06c-.04.26-.1.66-.44.61-.33-.05-.27-.38-.23-.63l.16-1.13-.58-.08-.18,1.31c-.07.5.03.92.58,1,.21.03.42-.02.57-.19h0s-.03.2-.03.2Z"/>
        <path class="cls-8" d="M25.79,63.99l.57.12.45-2.11-.57-.12-.45,2.11ZM25.81,65.3c.19.04.37-.09.42-.29.04-.2-.08-.39-.26-.43-.19-.04-.37.09-.42.29-.04.19.08.39.26.43"/>
        <polygon class="cls-8" points="24.55 63.67 25.17 63.86 24.91 61.47 24.63 61.39 23.08 63.22 23.69 63.4 24.45 62.36 24.55 63.67"/>
        <path class="cls-8" d="M21.25,61.25l-.03.07c-.24.6-.16,1.2.46,1.45.62.25,1.11-.1,1.36-.71.25-.61.06-1.19-.53-1.43-.4-.16-.82-.07-1.12.28l.46.29c.14-.13.3-.2.47-.13.28.11.26.44.16.69l-1.25-.51ZM22.34,62.1c-.11.2-.31.34-.53.26-.21-.08-.25-.33-.2-.55l.72.29Z"/>
        <path class="cls-8" d="M19.66,61.78l.53.26.95-1.94-.53-.26-.43.87c-.15.3-.35.62-.71.44-.08-.04-.14-.1-.18-.18l-.31.48c.05.06.12.12.19.15.2.1.4.08.59-.04h0s-.1.21-.1.21Z"/>
        <path class="cls-8" d="M17.37,60.31c.06.22.26.42.45.53.33.2.71.08.92-.26.18-.3.07-.51-.06-.7-.13-.18-.28-.33-.18-.49.07-.12.21-.15.32-.08.15.09.21.27.24.44l.42-.18c-.04-.29-.2-.54-.43-.68-.37-.22-.83-.17-1.08.24-.19.32-.09.56.04.75.13.19.29.34.21.47-.05.09-.18.11-.26.06-.1-.06-.16-.17-.19-.29l-.4.18Z"/>
        <path class="cls-8" d="M16.09,59.64l.48.34,1.24-1.77-.48-.34-1.24,1.77ZM15.6,60.85c.16.11.38.06.49-.1.12-.17.08-.39-.07-.5-.16-.11-.38-.07-.49.1-.11.16-.08.39.07.5"/>
        <polygon class="cls-8" points="15.26 58.39 14.98 58.17 14.66 58.59 14.95 58.8 14.51 59.39 14.98 59.74 15.42 59.16 15.58 59.28 15.89 58.86 15.73 58.74 16.72 57.43 16.25 57.08 15.26 58.39"/>
        <path class="cls-8" d="M13.64,56.1l-.05.06c-.44.48-.56,1.07-.06,1.52.49.44,1.08.28,1.52-.2.44-.49.47-1.1,0-1.52-.32-.29-.75-.35-1.14-.12l.34.43c.17-.07.35-.08.49.04.23.2.1.5-.09.7l-1-.9ZM14.37,57.28c-.17.15-.41.22-.58.06-.17-.15-.12-.4,0-.58l.58.52Z"/>
        <path class="cls-8" d="M11.93,56.05l.41.42,1.55-1.5-.41-.42-1.55,1.5ZM11.22,57.14c.13.14.36.13.5,0,.15-.14.16-.36.02-.5-.13-.14-.36-.14-.5,0-.14.14-.16.36-.02.5"/>
        <polygon class="cls-8" points="11.36 54.66 11.12 54.39 10.74 54.74 10.98 55.01 10.44 55.49 10.83 55.93 11.37 55.44 11.5 55.59 11.89 55.24 11.76 55.09 12.98 54 12.58 53.56 11.36 54.66"/>
        <polygon class="cls-8" points="9.19 52.67 9.54 53.21 10.87 51.22 10.71 50.96 8.35 51.37 8.69 51.91 9.95 51.6 9.19 52.67"/>
        <path class="cls-8" d="M7.11,49.15l.27.51.18-.1c-.09.21-.07.45.03.63.28.52.94.56,1.45.29.52-.27.86-.85.58-1.38-.1-.19-.29-.33-.5-.36h0s.18-.1.18-.1l-.27-.51-1.91,1.01ZM9.07,49.25c.14.27-.05.58-.31.71-.26.14-.62.12-.76-.15-.14-.27.05-.58.3-.71.26-.14.62-.12.77.15"/>
        <path class="cls-8" d="M6.49,47.74l.22.54,2-.81-.22-.54-.99.4c-.24.1-.62.25-.75-.07-.12-.31.19-.42.43-.52l1.06-.43-.22-.54-1.22.49c-.46.19-.78.49-.58,1,.08.19.22.36.45.4h0s-.18.08-.18.08Z"/>
        <polygon class="cls-8" points="5.37 43.65 5.37 43.66 4 43.96 4.13 44.56 7.37 43.84 7.24 43.24 5.79 43.56 5.78 43.56 7.02 42.25 6.85 41.48 5.38 43.1 3.63 42.26 3.79 43 5.37 43.65"/>
        <path class="cls-8" d="M4.37,39.36l.07.57.2-.03c-.16.16-.22.39-.2.6.07.58.68.86,1.25.78.58-.07,1.11-.49,1.03-1.08-.03-.21-.15-.41-.34-.52h0s.2-.03.2-.03l-.07-.57-2.14.27ZM6.17,40.14c.04.3-.25.52-.54.56-.29.04-.62-.11-.66-.4-.04-.3.25-.52.54-.56s.63.11.66.41"/>
        <path class="cls-8" d="M4.28,36.47v.58s.22,0,.22,0c-.17.15-.26.37-.26.58.01.59.59.92,1.16.91.58-.01,1.15-.37,1.14-.97,0-.21-.11-.43-.28-.55h0s.2-.01.2-.01v-.58s-2.17.05-2.17.05ZM5.98,37.44c0,.3-.31.49-.6.5-.29,0-.61-.17-.61-.47,0-.3.3-.5.59-.5.29,0,.61.17.62.47"/>
        <path class="cls-8" d="M4.36,34.94l-.05.58,3.3.27.05-.58-1.35-.11h0c.18-.11.3-.32.32-.53.05-.6-.49-.99-1.08-1.04-.57-.05-1.16.26-1.21.84-.02.22.07.44.22.59l-.2-.02ZM6.08,34.65c-.02.3-.36.46-.64.43-.29-.02-.59-.23-.56-.53.02-.3.35-.46.64-.43.29.02.59.23.57.53"/>
        <path class="cls-8" d="M5.01,31.35c-.18.14-.3.39-.34.61-.07.38.17.7.56.77.34.07.51-.11.63-.3.13-.18.21-.38.4-.34.14.03.21.15.19.27-.03.17-.18.29-.33.38l.31.33c.26-.13.44-.37.49-.64.08-.42-.13-.84-.6-.93-.37-.07-.55.11-.69.3-.13.19-.22.39-.37.36-.1-.02-.16-.13-.15-.22.02-.11.11-.21.2-.28l-.3-.31Z"/>
        <polygon class="cls-8" points="5.69 30.05 5.77 29.7 5.27 29.58 5.18 29.93 4.47 29.75 4.33 30.32 5.04 30.49 5 30.69 5.5 30.81 5.55 30.62 7.14 31.01 7.28 30.44 5.69 30.05"/>
        <path class="cls-8" d="M6.04,27.11l-.18.55.19.06c-.21.08-.37.26-.44.46-.18.56.25,1.07.79,1.24.56.18,1.21.03,1.4-.54.07-.2.04-.44-.08-.61h0s.19.05.19.05l.18-.55-2.05-.67ZM7.33,28.59c-.09.29-.45.36-.73.27-.28-.09-.52-.36-.42-.65.09-.29.45-.37.72-.28.28.09.52.37.43.65"/>
        <path class="cls-8" d="M8.95,25.86l.25-.53-3.38-1.58-.25.53,1.6.75h0c-.21.05-.39.21-.48.4-.25.53.12,1.09.64,1.33.53.25,1.2.18,1.45-.36.09-.19.09-.43-.01-.61h0s.18.08.18.08ZM8.34,26.05c-.13.27-.49.31-.75.18-.26-.12-.47-.42-.34-.69.13-.27.49-.31.75-.18s.47.42.35.7"/>
        <path class="cls-8" d="M9.62,23.16c.15-.23.08-.55-.17-.71-.25-.16-.57-.1-.72.13-.15.23-.08.55.17.71.25.16.57.1.72-.13"/>
        <path class="cls-4" d="M18.15,20.41h27.6v17.45c0,14-13.8,18.67-13.8,18.67,0,0-13.8-4.67-13.8-18.65v-17.47Z"/>
        <path class="cls-7" d="M45.34,20.81v17.05c0,12.91-12.01,17.73-13.39,18.24-1.39-.51-13.39-5.33-13.39-18.22v-17.07h26.79Z"/>
        <path class="cls-4" d="M44.12,37.86c0,11.2-9.71,15.92-12.18,16.93-2.47-1.01-12.18-5.73-12.18-16.91v-15.85h24.35v15.83Z"/>
        <path class="cls-4" d="M31.95,54.35c-2.67-1.13-11.77-5.78-11.77-16.47v-15.44h23.54v15.42c0,10.71-9.1,15.36-11.77,16.49"/>
        <path class="cls-7" d="M32.05,33.92c.55,0,.86.4.86.87,0,.12-.04.34-.14.44h-.06s-.02,0-.02-.04.05-.13.06-.19c.02-.08.02-.2.02-.24,0-.26-.21-.69-.51-.69h-.23s-.05.03-.08.06c.04.13.16.13.26.22.14.13.21.36.21.5,0,.11-.1.41-.28.41h-.73c-.16,0-.19-.25-.19-.31,0-.04-.03-.09-.03-.13,0-.45.35-.89.85-.89"/>
        <path class="cls-7" d="M32.13,33.25c.1,0,.4.06.47.15.03.05.11.07.11.11,0,0,.18.29.18.37v.18c-.32-.26-.54-.34-.83-.34-.27,0-.5.09-.76.3,0-.02-.02-.02-.02-.05s.03-.08.04-.11c.12-.4.45-.61.82-.61"/>
        <path class="cls-7" d="M33.37,33.18c.57.09,1.19.29,1.79.6-.04.02-.08.05-.11.05-.46.06-.93.12-1.4.15-.1-.24-.3-.72-.3-.76s0-.02.02-.04"/>
        <path class="cls-7" d="M30.71,33.16l.17.02c-.19.27-.3.56-.37.87h-.25c-.32,0-1.3-.18-1.47-.25.61-.38,1.3-.51,1.92-.65"/>
        <path class="cls-7" d="M32.63,33.06c.08.02.19,0,.28.04.22.08.44.59.44.77,0,.04.02.09.03.15-.02.02-.02.03,0,.22-.01.18-.08.47-.28.63-.02-.51-.09-.38-.07-.85,0-.18-.07-.41-.24-.59-.23-.25-.42-.29-.66-.29-.59,0-.99.5-.99.9,0,.04-.02.05-.02.07-.01.06,0,.13,0,.19-.03.19-.13.38-.11.58-.13,0-.23-.39-.23-.49,0-.04-.03-.1-.03-.14,0-.36.3-1.09.61-1.16l1.28-.02Z"/>
        <path class="cls-7" d="M29.76,32.76c.08,0,.13.3.13.3,0,.12-.11.09-.22.14-.16.07-.34.12-.5.18-.2.07-.42.17-.62.27-.07-.08-.14-.23-.14-.31,0-.14,1.29-.57,1.35-.57"/>
        <path class="cls-7" d="M34.19,32.74c.09,0,1.4.44,1.4.59,0,.06-.09.27-.14.27-.04,0-.38-.16-.57-.24-.23-.1-.49-.15-.73-.25-.07-.03-.07-.08-.07-.11,0-.01.05-.27.11-.27"/>
        <path class="cls-7" d="M28.64,32.55c.05.1.12.28.12.32,0,.06-.35.21-.43.22-.02-.01-.16-.27-.16-.32,0-.06.33-.22.46-.22"/>
        <path class="cls-7" d="M35.35,32.54s.47.19.47.26c0,.04-.08.2-.14.3-.03,0-.48-.15-.48-.25,0-.05.1-.3.14-.3"/>
        <path class="cls-7" d="M32.21,32.44s.07,0,.38.02c.45.02.95.11,1.44.26v.08c0,.07-.06.25-.12.25-.04,0-.46-.11-.67-.14-.2-.03-.42-.04-.61-.07l-.5-.02s-.04-.03-.05-.05v-.26s.1-.07.14-.07"/>
        <path class="cls-7" d="M31.93,32.44c.04.05.06.12.06.16,0,.24-.09.24-.31.24h-.21c-.26,0-1.27.22-1.38.22-.09,0-.14-.22-.14-.28,0-.04,0-.05.02-.08.11-.04.25-.07.38-.1.36-.08.73-.1,1.1-.15l.49-.02Z"/>
        <path class="cls-7" d="M33.24,31.94c.18,0,1.94.39,1.94.55,0,.08-.11.3-.14.33-.35-.11-.72-.24-1.09-.33-.25-.06-.57-.06-.82-.18.02-.18.02-.19,0-.21.02-.04.01-.15.11-.15"/>
        <path class="cls-7" d="M30.8,31.94c.08.09.07.23.07.32,0,.1-.13.09-.21.1-.27.05-.55.09-.81.18-.29.09-.67.24-.97.3-.05-.1-.12-.26-.12-.3,0-.11.35-.19.37-.2.53-.18,1.13-.33,1.67-.39"/>
        <path class="cls-7" d="M32.49,31.86s.33.03.5.05c.04.03.05.06.05.1s-.02.12-.03.16c.01.01,0,.08-.02.14-.42-.01-.58-.05-.62-.05h-.79s-.37.03-.55.05c-.06-.07-.07-.19-.07-.27,0-.04,0-.08.02-.11.17-.04.46-.07.51-.07h1.01Z"/>
        <path class="cls-7" d="M29.48,31.66s.06,0,.07.02c.02.08.07.2.07.25v.1l-1.51.55c-.07-.1-.12-.25-.12-.29,0-.06.2-.15.22-.16.1-.05,1.01-.46,1.27-.46"/>
        <path class="cls-7" d="M34.46,31.64c.1,0,1.58.5,1.58.62,0,.04-.07.19-.11.27-.01.02-.02.02-.06.02s-.69-.27-1.04-.4c-.14-.05-.32-.08-.47-.14-.04-.02-.05-.06-.05-.1s.05-.18.09-.26c.02,0,.02-.02.06-.02"/>
        <path class="cls-7" d="M28.24,31.51s.04.02.06.02c.04.08.09.22.09.26,0,.07-.41.24-.48.26-.03-.03-.14-.26-.14-.31,0-.04.43-.23.46-.23"/>
        <path class="cls-7" d="M35.72,31.48c.07,0,.52.23.52.28,0,.07-.09.28-.15.28-.04,0-.33-.14-.49-.21-.02-.01-.02-.02-.02-.06s.05-.14.05-.18.05-.1.09-.1"/>
        <path class="cls-7" d="M32.33,31.29s.27,0,.6.03c.22.02,1.35.2,1.35.31,0,.08-.04.23-.1.33-.24-.05-.49-.1-.72-.14-.35-.06-1.02-.12-1.06-.12h-.23s-.06-.05-.07-.09c0-.02.02-.03,0-.16,0-.19.11-.17.24-.17"/>
        <path class="cls-7" d="M31.86,31.29s.05.02.1.04c0,.02.02.05.02.33-.02.02-.03.03-.05.05h-.3c-.39,0-1.75.26-1.85.27-.04-.09-.09-.22-.09-.26v-.1c.47-.15.99-.23,1.49-.27.28-.03.64-.05.68-.05"/>
        <path class="cls-7" d="M35.05,31.26h.07s.43.14.43.2c0,.06-.09.28-.16.28-.04,0-.27-.08-.4-.13-.02,0-.04-.04-.04-.08s.07-.18.1-.26"/>
        <path class="cls-7" d="M28.9,31.26s.12.29.12.3c0,.04,0,.05-.02.06-.15.07-.4.17-.44.17-.06,0-.15-.29-.15-.31,0-.04.47-.22.49-.22"/>
        <path class="cls-7" d="M33.32,30.84h.12s.29.06.42.1c0,.02.02.01.02.05,0,.04-.06.3-.12.3-.04,0-.29-.05-.44-.07-.03,0-.07-.06-.07-.1s.03-.18.07-.28"/>
        <path class="cls-7" d="M30.65,30.84c.07,0,.09.26.09.28,0,.17-.49.17-.58.17-.04-.08-.07-.24-.07-.28,0-.09.49-.17.56-.17"/>
        <path class="cls-7" d="M32.62,30.78c.06,0,.54-.05.54.13,0,.04-.02.16-.04.24-.04.02-.1.02-.14.02-.13,0-.28,0-.4-.05-.02-.03-.02-.06-.02-.1s.02-.16.05-.24"/>
        <path class="cls-7" d="M31.2,30.78h.19c.05.08.05.17.05.23,0,.04,0,.05-.01.09-.07.06-.21.08-.3.08h-.24c-.02-.09-.05-.22-.05-.26,0-.13.25-.14.36-.13"/>
        <path class="cls-7" d="M35.23,30.7s1.24.43,1.24.52c0,.04-.08.21-.16.33-.41-.18-.8-.34-1.2-.49,0-.01-.02,0-.02-.04,0-.03.08-.32.14-.32"/>
        <path class="cls-7" d="M28.76,30.7c.06,0,.13.33.13.33,0,.04-.04.05-.05.07-.23.09-.65.26-.69.26s-.35.14-.44.17c-.05-.1-.14-.27-.14-.31,0-.12,1.16-.52,1.2-.52"/>
        <path class="cls-7" d="M32.74,30.2c.12,0,1.05.13,1.2.16.02.01.04.04.04.08,0,.06-.04.27-.13.3l-1.21-.18c-.02-.2,0-.28,0-.32s.07-.04.11-.04"/>
        <path class="cls-7" d="M31.18,30.21s.2.03.21.05c0,.03.02.2.02.24s-.03.07-.05.1c-.42.04-.85.09-1.29.15-.04-.1-.07-.25-.07-.29s0-.05.02-.08c.16-.04,1.04-.17,1.15-.16"/>
        <path class="cls-7" d="M30.81,29.24h2.56c.08-.01.24.12.31.21v.04h-3.22c.02-.15.24-.26.36-.26"/>
        <path class="cls-7" d="M31.01,28.99h2.08s.12.07.12.12c-.04.02-.07.04-.11.04l-2.2-.02s-.02-.02-.02-.06c0-.07.06-.06.12-.09"/>
        <path class="cls-7" d="M31.29,28.69h1.51s.12.07.12.11-.05.06-.06.1h-1.53c-.08-.03-.16-.02-.16-.11,0-.05.04-.1.11-.1"/>
        <path class="cls-7" d="M31.62,28.36h.94c.08.02.15.06.15.13,0,.04-.02.08-.09.08h-1.15s-.13-.11-.13-.14c.07-.08.2-.07.28-.07"/>
        <path class="cls-7" d="M31.34,27.89c.33.04.51.09.76.09.2,0,.38-.05.69-.09v.07s-.08.18-.12.26c-.08.02-.2.04-.24.04h-.93s-.03-.05-.04-.06c-.04-.08-.11-.21-.1-.25v-.06Z"/>
        <path class="cls-7" d="M30.32,27.21c.11,0,.3.18.3.29h-.09c-.07,0-.29-.17-.29-.21,0-.04.04-.07.08-.07"/>
        <path class="cls-7" d="M30.75,27.2c.18,0,.31.3.35.39-.02.02-.02.04-.06.04-.15,0-.39-.25-.39-.35,0-.07.07-.08.1-.08"/>
        <path class="cls-7" d="M31.24,27.18c.17,0,.2.32.2.36s-.05.12-.09.13c-.08-.02-.21-.26-.21-.36,0-.08.02-.14.1-.14"/>
        <path class="cls-7" d="M33.41,27.17c.08,0,.08.07.08.08,0,.1-.21.3-.29.34h-.07s-.02,0-.02-.05c0-.05.17-.37.31-.37"/>
        <path class="cls-7" d="M33,27.17c.08,0,.1.06.1.09,0,.05-.19.37-.31.37-.08,0-.07-.07-.07-.08,0-.07.14-.38.28-.38"/>
        <path class="cls-7" d="M32.49,27.17c.1,0,.14.13.14.17,0,.06-.09.37-.2.37-.12,0-.1-.22-.1-.22,0-.07,0-.32.16-.32"/>
        <path class="cls-7" d="M32.08,27.17c.13,0,.14.19.14.24s-.03.3-.13.3c-.13,0-.15-.32-.15-.34,0-.09.02-.21.14-.21"/>
        <path class="cls-7" d="M31.64,27.17c.14,0,.19.18.19.26,0,.04-.05.26-.12.26-.14,0-.2-.36-.2-.37,0-.07.02-.16.12-.16"/>
        <path class="cls-7" d="M28.87,26.06c.13-.01.14.19.14.24,0,.34-.43.43-.6.43-.32,0-.87-.31-1.15-.67h1.61Z"/>
        <path class="cls-7" d="M34.96,26.04s-.29.74-.96,1.05c-.04.02-.16-.08-.2-.08s-.17.08-.22.08-.16-.06-.2-.06-.12.06-.17.06c-.03,0-.16-.06-.22-.06-.04,0-.22.06-.23.06-.04,0-.17-.06-.22-.06s-.2.08-.24.08-.18-.08-.22-.08-.16.06-.2.06-.16-.06-.2-.06-.22.1-.26.1-.18-.06-.22-.06-.14.06-.18.06-.21-.08-.25-.08-.18.08-.22.08-.21-.06-.25-.06c-.13,0-.22.13-.25.13-.04,0-.12-.07-.17-.11-.22-.17-.43-.45-.54-.63-.06-.1-.19-.41-.19-.41h5.82Z"/>
        <path class="cls-7" d="M35.57,25.73v.14c-.03-.05-.04-.03-.05-.03h-6.22c-.08,0-.18,0-.28-.02v-.09h6.56Z"/>
        <path class="cls-7" d="M26.58,25.5c.11,0,.2.22.38.22h1.83s.06.07.05.11h-2.11c-.07,0-.29-.14-.29-.24,0-.06.14-.1.15-.1"/>
        <path class="cls-7" d="M32.9,25.09h.05s.37.27.56.42c-.02.04-.07.06-.11.06-.2,0-.52-.29-.52-.42,0-.04.02-.03.02-.06"/>
        <path class="cls-7" d="M32.18,25.06c.08,0,.15.26.15.28,0,.13-.1.18-.18.18-.13,0-.15-.05-.15-.13,0-.05.1-.34.18-.34"/>
        <path class="cls-7" d="M32.47,25.04h.07c.11,0,.36.35.36.38,0,.09-.09.12-.15.12-.18,0-.32-.31-.32-.38,0-.04.02-.08.04-.11"/>
        <path class="cls-7" d="M31.51,25.04s.04.03.04.07c0,.09-.3.42-.39.42h-.2s-.02,0-.02-.05.45-.41.58-.45"/>
        <path class="cls-7" d="M31.89,25.01c.06,0,.07.07.07.08,0,.12-.16.45-.31.45-.07,0-.12-.03-.12-.1,0-.08.21-.42.37-.42"/>
        <path class="cls-7" d="M31.59,24.69h1.28s.06.04.06.08-.05.04-.11.05h-1.31s-.04,0-.05-.03v-.05s.09-.04.14-.05"/>
        <path class="cls-7" d="M36.46,24.59c.48,0,1.1.28,1.1.85,0,.67-.95,1.21-1.54,1.31-.23.04-.48.14-.72.17-.39.05-.86.17-1.26.5-.02-.02-.02-.02-.02-.06,0-.22.71-.52.74-.53.54-.17,1.16-.29,1.71-.54.48-.22.73-.53.73-.89,0-.38-.46-.54-.71-.54-.15,0-.58.1-.65.22.02.03.06.04.1.06.04.02.1.13.1.16,0,.17-.17.26-.32.26-.18,0-.37-.1-.37-.3,0-.04.05-.13.1-.2.25-.34.7-.48,1.04-.48"/>
        <path class="cls-7" d="M32.19,23.96c.12,0,.27.07.27.23,0,.17-.14.26-.28.26s-.25-.14-.25-.25c0-.15.11-.25.26-.25"/>
        <path class="cls-7" d="M30.2,23.5c-.12.2-.35.16-.52.29-.14.11-.02.38-.25.38-.04,0-.35-.06-.39-.06-.09,0-.12-.02-.22.1.12.16.3.25.3.42,0,.04-.02.06-.02.1,0,.11-.34.22-.47.25l-.5-.02c-.09-.02-.27.13-.35.24-.08-.07-.18-.19-.18-.28,0-.18.26-.12.31-.12h.26c.13,0,.33-.19.33-.29,0-.25-.45-.27-.45-.54,0-.21.27-.26.41-.26.04,0,.6.13.64.13.16,0,.3-.15.44-.23.1-.06.25-.08.37-.08.22-.01.25,0,.29-.01"/>
        <path class="cls-7" d="M32.08,45.69c.21,0,.45.13.45.42.03,2.2.04,2.21.04,2.22,0,.08.04.18.04.22s.05.21.08.3c.11.42.47.68.83.68.99,0,2.92-1.35,3.66-2.07-.08-.07-.26-.26-.31-.3-.02-.02-.19-.15-.19-.23s1.11-.7,1.16-.73c.15-.1.3-.2.43-.3.08-.06.38-.29.49-.29s.01.51.03.53c-.03.18-.1.51-.1.55s-.1.35-.1.39c0,.22-.23.72-.3.88-.02.05-.05.08-.08.12-.2-.01-.58-.36-.64-.36-.09,0-.92.8-1.25,1.11-.21.19-.45.36-.63.52-.41.36-2.82,2.23-3.66,2.23s-3.25-1.87-3.66-2.23c-.19-.16-.43-.33-.63-.52-.33-.31-1.16-1.11-1.25-1.11-.06,0-.44.35-.64.36-.04-.03-.06-.07-.08-.12-.08-.16-.3-.66-.3-.88,0-.04-.1-.35-.1-.39s-.07-.37-.1-.55c.02-.02-.08-.53.03-.53s.41.23.49.29c.13.1.28.2.43.3.05.03,1.16.65,1.16.73s-.17.22-.19.23c-.06.04-.23.23-.31.3.74.71,2.67,2.07,3.66,2.07.36,0,.72-.27.83-.68.02-.1.08-.26.08-.3s.03-.15.04-.22c0-.02,0-.02.04-2.22,0-.29.24-.42.45-.42h.13Z"/>
        <path class="cls-7" d="M25.87,38.75v5.06s.52.42,2.5-.11c0,0,1.98-.75,3.5.17v-5.2s-.98-.87-3.39-.24c0,0-1.54.5-2.23.33-.52-.12-.38,0-.38,0"/>
        <path class="cls-7" d="M31.83,45.26c-.05.02-.11.02-.16,0,0-.02-.02-.02-.02-.06,0-.11.15-.56.18-.61,0,.07.02.41,0,.67"/>
        <path class="cls-7" d="M31.97,44.58s.05.1.06.16c.03.15.03.32.02.35v.2h-.13c0-.08-.01-.1-.01-.1v-.42s.02-.02,0-.02c.02-.04.03-.1.06-.15"/>
        <path class="cls-7" d="M31.7,44.56v.12s-.1.34-.15.5h-.08s-.04-.05-.04-.09c0-.08.24-.52.26-.53"/>
        <path class="cls-7" d="M31.6,44.5c-.06.17-.15.34-.23.52-.02,0-.01.02-.05.02s-.07-.04-.07-.08c0-.07.33-.45.36-.46"/>
        <path class="cls-7" d="M31.48,44.37l-.02.07c-.1.13-.2.26-.3.41-.08-.04-.08-.08-.08-.09,0-.08.31-.36.4-.39"/>
        <path class="cls-7" d="M38.11,38.75v5.06s-.52.42-2.5-.11c0,0-1.95-.75-3.5.17v-5.21s.97-.86,3.38-.23c0,0,1.54.5,2.23.33.52-.12.38,0,.38,0"/>
        <path class="cls-7" d="M32.15,45.26c.05.02.11.02.16,0,0-.02.02-.02.02-.06,0-.11-.15-.56-.18-.61,0,.07-.02.41,0,.67"/>
        <path class="cls-7" d="M32.28,44.56v.12s.1.34.15.5h.07s.04-.05.04-.09c0-.08-.24-.52-.26-.53"/>
        <path class="cls-7" d="M32.39,44.5c.06.17.15.34.23.52.02,0,.01.02.05.02s.08-.04.08-.08c0-.07-.34-.45-.36-.46"/>
        <path class="cls-7" d="M38.34,38.86v5.23l-.06-.08-.08-.12v-5.16l.15.14ZM38.54,38.95v5.39l-.14-.19v-5.28l.14.09ZM38.72,39.07v5.49l-.04-.04-.08-.1v-5.38l.12.03Z"/>
        <path class="cls-7" d="M32.5,44.37l.02.07c.1.13.19.26.3.41.08-.04.08-.08.08-.09,0-.08-.31-.36-.4-.39"/>
        <path class="cls-7" d="M38.88,39.23h.2v5.74h-6.05s0-.01,0-.01c-.21.34-.58.58-1.01.6h-.02s-.02,0-.02,0c-.43-.02-.8-.25-1.01-.6v.02h-6.05v-5.75h.2v5.55h5.88l-.02.11c.2.36.58.61,1.03.62.44,0,.83-.26,1.03-.62l-.02-.11h5.88v-5.55Z"/>
        <path class="cls-7" d="M27.66,25.46c0-.06.05-.12.12-.12s.12.05.12.12-.06.12-.12.12-.12-.05-.12-.12"/>
        <path class="cls-7" d="M33.81,27.21c-.11,0-.3.18-.3.29h.09c.07,0,.29-.17.29-.21,0-.04-.04-.07-.08-.07"/>
        <path class="cls-7" d="M31.98,38.45l-.48-.31c0-.11,0-.3,0-.42,0-.3.24-.42.45-.42h.13c.21,0,.45.13.45.42,0,.12,0,.31,0,.42l-.55.31Z"/>
        <polygon class="cls-7" points="28.53 35.46 29.27 35.45 29.27 36.54 28.53 36.4 28.53 35.46"/>
        <polygon class="cls-7" points="27.26 35.57 28.37 35.57 28.37 36.3 27.26 36.14 27.26 35.57"/>
        <polygon class="cls-7" points="27.18 35.59 26.96 35.75 26.96 36.32 27.18 36.18 27.18 35.59"/>
        <path class="cls-4" d="M28.85,35.55s.03,0,.05,0c.1,0,.19.08.19.18s-.08.18-.19.18c-.04,0-.11-.06-.14-.09.07-.02.16,0,.16-.12,0-.06-.03-.11-.08-.15"/>
        <path class="cls-4" d="M28.85,36s.03,0,.05,0c.1,0,.19.08.19.18s-.08.18-.19.18c-.04,0-.11-.06-.14-.08.07-.02.16,0,.16-.12,0-.06-.03-.11-.08-.15"/>
        <polygon class="cls-7" points="27.24 36.22 28.37 36.4 28.37 36.55 27.03 36.35 27.24 36.22"/>
        <polygon class="cls-7" points="28.54 36.5 29.27 36.64 29.27 36.78 28.53 36.64 28.54 36.5"/>
        <polygon class="cls-7" points="29.41 36.61 31.98 37.06 31.98 37.19 29.41 36.77 29.41 36.61"/>
        <polygon class="cls-7" points="35.43 35.45 34.7 35.45 34.7 36.54 35.44 36.4 35.43 35.45"/>
        <polygon class="cls-7" points="36.7 35.57 35.59 35.57 35.59 36.3 36.7 36.14 36.7 35.57"/>
        <path class="cls-4" d="M34.96,35.55s.03,0,.06,0c.1,0,.19.08.19.18s-.08.18-.19.18c-.04,0-.11-.06-.14-.09.07-.02.16,0,.16-.12,0-.06-.03-.11-.08-.15"/>
        <path class="cls-4" d="M34.96,36s.03,0,.06,0c.1,0,.19.08.19.18s-.08.18-.19.18c-.04,0-.11-.06-.14-.08.07-.02.16,0,.16-.12,0-.06-.03-.11-.08-.15"/>
        <polygon class="cls-7" points="36.7 36.22 35.6 36.4 35.6 36.55 36.61 36.38 36.7 36.22"/>
        <polygon class="cls-7" points="35.43 36.5 34.7 36.64 34.7 36.76 35.43 36.64 35.43 36.5"/>
        <polygon class="cls-7" points="31.98 36.92 29.42 36.47 29.42 35.58 31.98 35.58 34.55 35.58 34.55 36.47 31.98 36.92"/>
        <polygon class="cls-7" points="34.56 36.61 31.98 37.06 31.98 37.19 34.56 36.77 34.56 36.61"/>
        <path class="cls-4" d="M33.07,39.96c.29,0,.51.15.51.38,0,.11-.05.2-.18.3.09.13.27.24.27.4,0,.35-.38.41-.62.41-.04,0-.16,0-.48-.02-.02-.02-.04-.02-.06-.04.04-.05.08-.12.11-.18v-1.1s-.07-.09-.09-.13c.06,0,.12-.02.54-.02"/>
        <path class="cls-4" d="M34.52,40.05c.42,0,.59.38.59.68,0,.36-.24.76-.64.76s-.64-.38-.64-.68c0-.32.21-.76.69-.76"/>
        <path class="cls-4" d="M35.32,40.12c.54,0,.39.37.77.8.09-.11.08-.3.08-.43,0-.11,0-.12-.12-.23.02,0,.02-.02.07-.02s.23.03.33.07c-.22.13-.16.38-.18.58-.04.35-.04.56-.07.78-.31-.34-.42-.7-.67-1.03-.01,0-.02.03-.03.04-.02.19-.09.57-.09.61,0,.09.07.19.13.28-.11.02-.27.04-.4-.02,0,0,0-.02,0-.04.17-.07.14-.36.14-.49,0-.04.08-.58.08-.62,0-.05-.05-.14-.13-.22.04-.05.06-.06.09-.06"/>
        <path class="cls-4" d="M36.8,40.3c.14.02.39.02.44.03,0,0,.02,0,.02.04s-.05.07-.05.11.1.32.16.48c.08.2.11.49.32.67v.06c-.17.02-.34.02-.51,0,0,0-.02,0-.02-.04,0-.04.07-.1.07-.14,0-.1-.07-.26-.19-.26h-.28s-.11.2-.11.27c0,.04.03.08.07.13-.12.02-.26,0-.38-.02.03-.06.12-.09.16-.17.15-.31.36-.95.36-.99,0-.04-.07-.1-.07-.14s0-.03.02-.05"/>
        <path class="cls-7" d="M34.55,40.17c.18,0,.21.17.24.34-.02.19-.02.2,0,.22,0,.04-.05.65-.34.65-.26,0-.29-.4-.29-.5,0-.14.06-.72.39-.72"/>
        <path class="cls-7" d="M36.92,40.74s.16.26.16.31c0,.04-.02.02-.02.06h-.21s-.04-.04-.04-.08.05-.19.11-.29"/>
        <path class="cls-7" d="M33.04,40.73c.19,0,.28.13.28.28s-.11.31-.27.31c-.04,0-.09-.02-.14-.05v-.44c0-.08.06-.1.13-.1"/>
        <path class="cls-7" d="M33.07,40.1c.16,0,.22.06.22.22s-.08.27-.25.27c-.04,0-.08-.02-.12-.05,0-.32.02-.37.02-.42.04-.02.08-.02.12-.02"/>
        <path class="cls-4" d="M30.65,39.96h.34s.02.31,0,.37c-.07,0-.11-.19-.21-.22-.03-.01-.07-.02-.11-.02-.09,0-.22.03-.22.15,0,.32.7.31.7.82,0,.24-.18.39-.43.39-.04,0-.29-.05-.43-.07-.06-.07-.05-.19-.05-.29,0-.04.02-.08.04-.14.1.19.25.37.47.37.1,0,.18-.06.18-.17,0-.29-.7-.36-.7-.81,0-.28.22-.38.44-.38"/>
        <path class="cls-4" d="M29.73,40.09s.06.03.1.05v.35c-.06-.07-.1-.14-.16-.19-.06-.05-.17-.07-.21-.07-.04,0-.24.03-.26.12.02.19.01.21,0,.22.02.03-.01.2.08.2.11,0,.14-.11.23-.18.02.04.02.07.04.1-.02.02-.02.03,0,.3-.08-.06-.13-.13-.21-.13-.07,0-.09.07-.1.11.02.21.01.23,0,.24.02.06,0,.14.04.2.03.06.1.04.13.04.2,0,.38-.07.47-.32.02.02.03.04.03.08s-.03.19-.06.29c-.25.07-.74.13-.79.13h-.22s.05-.09.08-.12c.03-.05.04-.12.04-.16l-.05-.9c0-.09-.1-.19-.13-.21,0-.02.02-.04.04-.06.3-.04.89-.1.93-.1"/>
        <path class="cls-4" d="M28.16,40.28c.29,0,.49.15.49.42,0,.3-.16.46-.62.46-.06.02-.04.13-.04.14,0,.04.02.22.07.33.02.04.08.06.13.1-.05.1-.22.06-.31.07-.22,0-.26,0-.27-.02,0-.04.04-.05.06-.09.03-.08.02-.2.02-.24l-.03-.88c-.02-.06-.03-.11-.1-.18.16-.1.43-.12.61-.12"/>
        <path class="cls-4" d="M26.8,40.33s.09.02.43.02c-.04.06,0,.16,0,.21,0,.04-.02.12-.04.18-.06-.05-.08-.14-.13-.19-.05-.05-.18-.08-.22-.08-.09,0-.19.03-.19.15,0,.18.56.45.53.5-.02.03.06.05.08.08.02.03.06.08.06.13.01.02.05.01.05.05s-.03-.02-.03.02.03.02.03.06-.03.02-.03.06,0,0,.03.01c-.05.07-.09.17-.17.23-.07.05-.21.08-.25.08s-.21-.06-.31-.09c-.05-.01-.11,0-.17,0,0-.04-.02-.07-.02-.31,0-.03.02-.08.04-.12.13.18.21.38.43.38.09,0,.19-.09.19-.18,0-.3-.68-.31-.68-.79,0-.19.12-.41.37-.41"/>
        <path class="cls-7" d="M28.1,40.41c.2,0,.25.21.25.31,0,.17-.08.33-.26.33-.04,0-.13,0-.12-.1,0-.24-.02-.32-.02-.36,0-.14.02-.18.15-.18"/>
        <path class="cls-8" d="M31.95,54.35c-2.67-1.13-11.77-5.78-11.77-16.47v-1.12c.63-.19,2.2-.66,2.82-.83,0,0,.95-.43,2.64.25,0,0,2.71,1.11,5.55,1.37.09.02.05.51.07.58l-.11-.03s-.07-.03-.13-.04c-.33-.04-.61-.07-.97-.07-.58,0-.61.07-1.38.18-.12.02-.49.12-.62.16-.43.13-.89.25-1.34.25-.04,0-.44-.05-.57-.07-.16-.03-.29.03-.33.03-.09,0-.59.43-.75.51-.07.04-.32-.05-.32.08v5.96h6.1c.07,0,.42.54.42.54v2.71s-.08.28-.08.32-.15.32-.26.45c-.16.19-.35.2-.51.2-.85,0-2.67-1.27-3.26-1.89,0-.01.43-.37.43-.49,0-.17-.43-.34-.48-.37-.07-.04-.15-.1-.23-.15-.19-.12-.42-.24-.63-.38-.14-.1-.74-.59-.98-.6-.16,0-.24.23-.24.29l.02.64s.08.43.12.64c.05.26.14.53.23.8,0,.03.23.52.37.52,0,0,.64-.38.67-.38.08,0,.47.46.59.56.25.23.51.52.8.77.42.36.89.67,1.32,1,.16.12.32.25.47.36.22.16.47.32.73.48.11.07.26.11.36.17.33.19.81.51,1.18.51h.25c.37,0,.85-.31,1.18-.51.11-.06.26-.1.37-.17.26-.16.51-.32.73-.48.15-.11.31-.24.47-.36.44-.33.9-.64,1.32-1,.29-.25.56-.55.8-.77.12-.11.51-.56.59-.56.04,0,.67.38.67.38.14,0,.36-.49.37-.52.09-.27.18-.54.23-.8.04-.21.12-.6.12-.64v-.7c0-.07-.1-.27-.23-.27-.24,0-.83.54-.97.63-.21.14-.44.26-.63.38-.09.05-.17.11-.23.15-.05.03-.48.2-.48.37,0,.12.42.48.43.49-.59.62-2.41,1.89-3.26,1.89-.15,0-.34,0-.51-.2-.11-.12-.26-.41-.26-.45s-.08-.28-.08-.32v-2.71s.35-.54.43-.54h6.09v-5.96c0-.13-.29-.1-.36-.13-.16-.08-.61-.5-.7-.5-.04,0-.29.03-.45.05-.13.02-.34.12-.54.06-.44-.12-.88-.03-1.33-.27-.12-.06-.46-.16-.58-.17-.76-.12-.74-.19-1.32-.19-.36,0-.64-.02-.97.02-.05,0-.1.02-.14.02l-.09.02c.01-.07-.04-.48.04-.5,2.83-.25,5.55-1.37,5.55-1.37,1.69-.69,2.65-.25,2.65-.25.65.18,2.19.67,2.69.84v1.09c0,10.71-9.1,15.36-11.77,16.49"/>
        <path class="cls-7" d="M25.39,44.39l-.12.16v-5.42l.12-.08v5.34ZM25.79,38.79v5.06l-.15.2v-5.16l.15-.1ZM25.59,38.92v5.2l-.14.19v-5.3l.14-.09Z"/>
        <path class="cls-7" d="M25.59,44.47s.05.02.09.03c.09.03.2.06.35.08.38.07.95.11,1.74,0l.42-.08.83-.19s.32-.1.74-.12c.42-.03.94.02,1.37.29l-.02.03c-.41-.27-.93-.31-1.34-.29-.26.02-.48.06-.61.09.14-.02.38-.05.67-.06.41,0,.9.05,1.25.29l-.02.03c-.34-.23-.82-.28-1.23-.28-.43,0-.77.08-.77.08l-.86.17-.44.1c-.8.11-1.37.07-1.74,0-.15-.03-.27-.06-.35-.09-.04-.01-.07-.02-.1-.03l.02-.03ZM25.9,44s.03.01.05.02c.56.2,1.25.15,1.81,0l1.22-.31s.43-.11.97-.12c.53-.01,1.18.06,1.62.42l-.02.03c-.43-.35-1.06-.42-1.59-.41-.53.01-.96.12-.96.12l-1.22.3c-.57.14-1.27.2-1.83,0-.02,0-.04-.02-.06-.02l.02-.03ZM25.74,44.24c.1.04.27.09.49.13.37.06.9.09,1.54-.07l1.22-.31s.39-.11.87-.12c.48-.02,1.06.05,1.47.39l-.02.03c-.4-.33-.97-.4-1.45-.38-.48.02-.87.12-.87.12l-1.22.31c-.64.16-1.17.13-1.55.07-.24-.04-.41-.1-.51-.13l.02-.03Z"/>
        <path class="cls-7" d="M38.28,44.53c-.3.1-.98.25-2.1.1l-.44-.1-.86-.17s-1.27-.27-1.98.18l-.02-.03c.35-.22.83-.28,1.23-.27.28,0,.53.04.67.06-.33-.08-1.25-.23-1.92.18l-.02-.03c.42-.26.93-.3,1.34-.28.42.02.74.12.74.12l.83.19.43.09c.8.11,1.37.07,1.74,0,.15-.03.26-.06.35-.08.08-.03.14-.05.17-.07l.03.03s-.09.04-.18.07M38.1,44.01c-.13.06-.8.33-1.94.05l-1.22-.31s-1.65-.41-2.53.27l-.02-.03c.44-.34,1.07-.42,1.59-.4.54.01.97.12.97.12l1.22.3c.56.14,1.25.19,1.81,0,.04-.02.07-.03.09-.04l.02.03ZM38.29,44.25c-.14.06-.96.37-2.12.09l-1.22-.31s-1.47-.4-2.29.24l-.02-.03c.41-.33.98-.39,1.45-.37.49.02.87.12.87.12l1.22.31c.63.15,1.16.13,1.54.07.29-.05.49-.12.56-.15l.02.03Z"/>
      </g>
    </g>
  </g>
  <g>
    <path class="cls-3" d="M89.97,38.61c-2.21,0-4.25-.4-6.14-1.2-1.89-.8-3.52-1.9-4.9-3.29-1.38-1.39-2.45-3.03-3.22-4.92-.77-1.89-1.16-3.91-1.16-6.06v-.08c0-2.15.39-4.16,1.16-6.03.77-1.87,1.85-3.52,3.22-4.94,1.37-1.42,3.02-2.53,4.94-3.35,1.92-.82,4.04-1.22,6.36-1.22,1.4,0,2.68.11,3.84.34,1.16.23,2.21.54,3.15.94.95.4,1.82.89,2.62,1.46.8.57,1.55,1.2,2.23,1.89l-4.21,4.85c-1.17-1.06-2.37-1.89-3.58-2.49-1.22-.6-2.58-.9-4.1-.9-1.26,0-2.43.24-3.5.73-1.07.49-2,1.16-2.77,2.02s-1.38,1.85-1.8,2.98c-.43,1.13-.64,2.34-.64,3.63v.09c0,1.29.21,2.51.64,3.65.43,1.15,1.02,2.15,1.78,3.01.76.86,1.67,1.54,2.75,2.04,1.07.5,2.25.75,3.54.75,1.72,0,3.17-.32,4.36-.94,1.19-.63,2.37-1.49,3.54-2.58l4.21,4.25c-.77.83-1.57,1.57-2.4,2.23-.83.66-1.74,1.22-2.73,1.7-.99.47-2.07.83-3.24,1.07-1.17.24-2.49.36-3.95.36Z"/>
    <path class="cls-3" d="M107.87,8.03h6.61v30.06h-6.61V8.03Z"/>
    <path class="cls-3" d="M122,8.03h11.72c2.35,0,4.5.38,6.46,1.14s3.65,1.81,5.07,3.16c1.42,1.35,2.51,2.93,3.29,4.74.77,1.82,1.16,3.79,1.16,5.9v.09c0,2.12-.39,4.09-1.16,5.93-.77,1.83-1.87,3.42-3.29,4.77-1.42,1.35-3.11,2.4-5.07,3.18s-4.12,1.16-6.46,1.16h-11.72V8.03ZM128.61,14.05v18.03h5.11c1.35,0,2.58-.21,3.69-.64,1.12-.43,2.07-1.04,2.86-1.84.79-.8,1.4-1.74,1.85-2.82s.67-2.29.67-3.63v-.08c0-1.31-.22-2.52-.67-3.63s-1.06-2.06-1.85-2.86c-.79-.8-1.74-1.42-2.86-1.86-1.12-.44-2.35-.66-3.69-.66h-5.11Z"/>
    <path class="cls-3" d="M155.58,8.03h22.63v5.88h-16.1v6.1h14.17v5.88h-14.17v6.31h16.32v5.88h-22.85V8.03Z"/>
    <path class="cls-3" d="M184.35,8.03h13.74c3.81,0,6.73,1.02,8.76,3.05,1.72,1.72,2.58,4.01,2.58,6.87v.09c0,2.43-.6,4.42-1.78,5.95-1.19,1.53-2.74,2.66-4.66,3.37l7.34,10.74h-7.73l-6.44-9.62h-5.2v9.62h-6.61V8.03ZM197.66,22.63c1.63,0,2.88-.38,3.76-1.15.87-.77,1.31-1.8,1.31-3.08v-.09c0-1.42-.46-2.49-1.37-3.2-.92-.71-2.19-1.07-3.82-1.07h-6.57v8.59h6.7Z"/>
  </g>
  <g>
    <path class="cls-5" d="M78.66,55.08c-.45,0-.86-.08-1.24-.25-.38-.16-.71-.39-.98-.67s-.49-.62-.65-1-.24-.8-.24-1.23v-.02c0-.44.08-.85.23-1.23.15-.38.37-.72.65-1.01.28-.29.61-.52,1-.68s.81-.25,1.28-.25c.28,0,.53.02.76.07s.44.11.63.19c.19.08.37.18.53.3.16.12.32.24.46.38l-.69.8c-.25-.23-.5-.41-.78-.55-.27-.14-.59-.21-.94-.21-.29,0-.56.06-.81.17-.25.11-.46.27-.64.46-.18.2-.32.42-.42.69-.1.26-.15.54-.15.84v.02c0,.3.05.58.15.85.1.27.24.5.42.69.18.2.4.35.64.46.25.11.52.17.81.17.37,0,.69-.07.96-.21.27-.14.53-.33.79-.58l.69.7c-.16.17-.32.32-.49.45-.17.13-.36.24-.56.34s-.42.17-.65.22c-.24.05-.5.07-.78.07Z"/>
    <path class="cls-5" d="M84.28,55.08c-.33,0-.64-.06-.93-.17-.29-.12-.54-.28-.75-.49-.21-.21-.38-.46-.51-.76-.12-.29-.18-.62-.18-.98v-.02c0-.33.06-.64.17-.94.11-.29.27-.55.47-.77.2-.22.44-.39.71-.52s.58-.19.91-.19c.37,0,.69.07.97.2.28.13.51.31.69.54.18.23.32.49.42.79.09.3.14.62.14.95,0,.05,0,.09,0,.14,0,.05,0,.1-.01.15h-3.39c.06.38.21.67.45.87.24.2.54.3.88.3.26,0,.49-.05.68-.14s.38-.23.57-.41l.62.55c-.22.26-.49.47-.79.63-.31.16-.67.24-1.1.24ZM85.32,52.34c-.02-.17-.06-.33-.11-.48-.06-.15-.14-.28-.24-.38s-.22-.19-.35-.26c-.14-.06-.29-.1-.47-.1-.33,0-.59.11-.81.34-.21.22-.34.52-.39.88h2.36Z"/>
    <path class="cls-5" d="M87.43,50.36h1.06v.71c.08-.1.16-.21.25-.31s.2-.19.31-.26c.12-.07.25-.13.39-.17.14-.04.3-.07.49-.07.52,0,.93.16,1.22.48.29.32.43.75.43,1.29v2.95h-1.06v-2.62c0-.36-.09-.64-.26-.83s-.42-.29-.73-.29-.56.1-.75.3c-.19.2-.29.48-.29.84v2.61h-1.06v-4.62Z"/>
    <path class="cls-5" d="M94.4,55.05c-.19,0-.37-.02-.53-.07-.16-.05-.3-.12-.42-.23-.12-.1-.21-.24-.28-.42-.06-.17-.1-.39-.1-.64v-2.43h-.59v-.91h.59v-1.27h1.06v1.27h1.24v.91h-1.24v2.26c0,.2.05.35.15.44.1.09.24.14.42.14.23,0,.45-.05.66-.16v.87c-.13.08-.28.13-.42.17-.15.04-.33.06-.53.06Z"/>
    <path class="cls-5" d="M96.45,50.36h1.06v1.04c.15-.35.35-.63.62-.84.27-.21.61-.31,1.01-.29v1.12h-.06c-.23,0-.45.04-.64.11s-.36.19-.5.34c-.14.15-.25.34-.32.57-.08.23-.11.5-.11.8v1.76h-1.06v-4.62Z"/>
    <path class="cls-5" d="M102.03,55.08c-.33,0-.64-.06-.93-.17-.29-.12-.54-.28-.75-.49-.21-.21-.38-.46-.51-.76-.12-.29-.18-.62-.18-.98v-.02c0-.33.06-.64.17-.94.11-.29.27-.55.47-.77.2-.22.44-.39.71-.52s.58-.19.91-.19c.37,0,.69.07.97.2.28.13.51.31.69.54.18.23.32.49.42.79.09.3.14.62.14.95,0,.05,0,.09,0,.14,0,.05,0,.1-.01.15h-3.39c.06.38.21.67.45.87.24.2.54.3.88.3.26,0,.49-.05.68-.14s.38-.23.57-.41l.62.55c-.22.26-.49.47-.79.63-.31.16-.67.24-1.1.24ZM103.07,52.34c-.02-.17-.06-.33-.11-.48-.06-.15-.14-.28-.24-.38s-.22-.19-.35-.26c-.14-.06-.29-.1-.47-.1-.33,0-.59.11-.81.34-.21.22-.34.52-.39.88h2.36Z"/>
    <path class="cls-5" d="M108.04,51.27h-.59v-.87h.59v-.34c0-.51.13-.89.38-1.14.25-.25.59-.37,1.04-.37.19,0,.35.01.48.04s.26.05.38.09v.89c-.1-.03-.21-.06-.3-.08-.1-.02-.2-.03-.32-.03-.41,0-.61.24-.61.71v.26h1.22v.87h-1.21v3.71h-1.06v-3.71Z"/>
    <path class="cls-5" d="M113.2,55.08c-.35,0-.67-.06-.97-.19-.3-.13-.56-.3-.78-.51-.22-.22-.39-.47-.51-.76-.12-.29-.18-.6-.18-.93v-.02c0-.33.06-.64.19-.94.13-.29.3-.55.52-.77.22-.22.48-.39.78-.52.3-.13.63-.19.98-.19s.68.06.98.19.56.3.78.52c.22.22.39.47.51.76.12.29.18.6.18.93v.02c0,.33-.06.64-.19.93-.12.29-.3.55-.52.76-.22.22-.48.39-.78.52-.3.13-.63.19-.99.19ZM113.22,54.15c.22,0,.41-.04.58-.12s.32-.18.44-.31c.12-.13.22-.29.28-.46s.1-.37.1-.56v-.02c0-.2-.03-.4-.1-.58-.07-.18-.17-.34-.29-.47-.12-.13-.27-.24-.45-.32s-.36-.12-.57-.12-.4.04-.57.12-.32.18-.44.31c-.12.13-.22.29-.28.47-.06.18-.1.37-.1.57v.02c0,.2.04.4.11.57.07.18.17.33.29.47.12.13.27.24.45.32s.36.12.56.12Z"/>
    <path class="cls-5" d="M116.75,50.36h1.06v1.04c.15-.35.35-.63.62-.84.27-.21.61-.31,1.01-.29v1.12h-.06c-.23,0-.45.04-.64.11s-.36.19-.5.34c-.14.15-.25.34-.32.57-.08.23-.11.5-.11.8v1.76h-1.06v-4.62Z"/>
    <path class="cls-5" d="M123.17,48.85h1.08v6.12h-1.08v-6.12Z"/>
    <path class="cls-5" d="M125.76,50.36h1.06v.71c.08-.1.16-.21.25-.31s.2-.19.31-.26c.12-.07.25-.13.39-.17.14-.04.3-.07.49-.07.52,0,.93.16,1.22.48.29.32.43.75.43,1.29v2.95h-1.06v-2.62c0-.36-.09-.64-.26-.83s-.42-.29-.73-.29-.56.1-.75.3c-.19.2-.29.48-.29.84v2.61h-1.06v-4.62Z"/>
    <path class="cls-5" d="M132.73,55.05c-.19,0-.37-.02-.53-.07-.16-.05-.3-.12-.42-.23-.12-.1-.21-.24-.28-.42-.06-.17-.1-.39-.1-.64v-2.43h-.59v-.91h.59v-1.27h1.06v1.27h1.24v.91h-1.24v2.26c0,.2.05.35.15.44.1.09.24.14.42.14.23,0,.45-.05.66-.16v.87c-.13.08-.28.13-.42.17-.15.04-.33.06-.53.06Z"/>
    <path class="cls-5" d="M136.77,55.08c-.33,0-.64-.06-.93-.17-.29-.12-.54-.28-.75-.49-.21-.21-.38-.46-.51-.76-.12-.29-.18-.62-.18-.98v-.02c0-.33.06-.64.17-.94.11-.29.27-.55.47-.77.2-.22.44-.39.71-.52s.58-.19.91-.19c.37,0,.69.07.97.2.28.13.51.31.69.54.18.23.32.49.42.79.09.3.14.62.14.95,0,.05,0,.09,0,.14,0,.05,0,.1-.01.15h-3.39c.06.38.21.67.45.87.24.2.54.3.88.3.26,0,.49-.05.68-.14s.38-.23.57-.41l.62.55c-.22.26-.49.47-.79.63-.31.16-.67.24-1.1.24ZM137.81,52.34c-.02-.17-.06-.33-.11-.48-.06-.15-.14-.28-.24-.38s-.22-.19-.35-.26c-.14-.06-.29-.1-.47-.1-.33,0-.59.11-.81.34-.21.22-.34.52-.39.88h2.36Z"/>
    <path class="cls-5" d="M141.98,56.39c-.77,0-1.46-.19-2.06-.56l.39-.8c.25.15.51.27.77.36.26.09.55.13.87.13.47,0,.83-.12,1.08-.36.25-.24.38-.59.38-1.05v-.36c-.19.25-.42.45-.67.61-.26.16-.57.24-.95.24-.27,0-.54-.05-.79-.15-.25-.1-.47-.24-.67-.42s-.35-.41-.47-.68c-.12-.27-.17-.57-.17-.91v-.02c0-.34.06-.64.17-.91.12-.27.27-.5.47-.68s.42-.33.67-.42c.25-.1.51-.15.78-.15.39,0,.71.08.97.23.25.15.47.34.65.56v-.69h1.06v3.67c0,.77-.2,1.35-.58,1.74-.21.21-.47.37-.79.47-.32.1-.69.15-1.11.15ZM142.06,53.71c.18,0,.35-.03.52-.09.17-.06.31-.15.43-.26.12-.11.22-.24.29-.4.07-.16.11-.33.11-.52v-.02c0-.19-.04-.36-.11-.52-.07-.16-.17-.29-.29-.4-.12-.11-.27-.2-.43-.26-.17-.06-.34-.09-.52-.09s-.36.03-.52.09c-.16.06-.3.15-.42.26s-.21.24-.28.4c-.07.15-.1.33-.1.52v.02c0,.19.04.36.11.52.07.16.16.29.28.4.12.11.26.2.42.26.16.06.33.09.51.09Z"/>
    <path class="cls-5" d="M145.79,50.36h1.06v1.04c.15-.35.35-.63.62-.84.27-.21.61-.31,1.01-.29v1.12h-.06c-.23,0-.45.04-.64.11s-.36.19-.5.34c-.14.15-.25.34-.32.57-.08.23-.11.5-.11.8v1.76h-1.06v-4.62Z"/>
    <path class="cls-5" d="M150.51,55.07c-.21,0-.42-.03-.62-.09s-.37-.15-.52-.27-.27-.27-.36-.45c-.09-.18-.14-.38-.14-.62v-.02c0-.25.05-.47.14-.66.09-.19.22-.34.39-.46s.37-.21.6-.28c.24-.06.49-.09.77-.09.26,0,.49.02.68.05.19.04.38.08.56.14v-.11c0-.33-.1-.58-.29-.75-.2-.17-.48-.25-.85-.25-.26,0-.5.03-.7.08-.2.05-.41.12-.62.21l-.28-.83c.26-.12.52-.21.79-.28.27-.07.59-.1.95-.1.69,0,1.2.17,1.53.52.17.17.29.37.38.61.08.24.12.51.12.81v2.74h-1.03v-.58c-.16.19-.36.35-.6.48-.25.13-.55.2-.9.2ZM150.81,54.3c.17,0,.34-.02.49-.07s.28-.11.39-.2c.11-.09.19-.19.26-.31.06-.12.1-.26.1-.4v-.31c-.13-.05-.29-.1-.47-.13-.18-.03-.37-.05-.58-.05-.34,0-.61.07-.8.2-.19.13-.28.32-.28.57v.02c0,.22.09.39.26.52s.39.18.64.18Z"/>
    <path class="cls-5" d="M155.82,55.05c-.19,0-.37-.02-.53-.07-.16-.05-.3-.12-.42-.23-.12-.1-.21-.24-.28-.42-.06-.17-.1-.39-.1-.64v-2.43h-.59v-.91h.59v-1.27h1.06v1.27h1.24v.91h-1.24v2.26c0,.2.05.35.15.44.1.09.24.14.42.14.23,0,.45-.05.66-.16v.87c-.13.08-.28.13-.42.17-.15.04-.33.06-.53.06Z"/>
    <path class="cls-5" d="M159.86,55.08c-.33,0-.64-.06-.93-.17-.29-.12-.54-.28-.75-.49-.21-.21-.38-.46-.51-.76-.12-.29-.18-.62-.18-.98v-.02c0-.33.06-.64.17-.94.11-.29.27-.55.47-.77.2-.22.44-.39.71-.52s.58-.19.91-.19c.37,0,.69.07.97.2.28.13.51.31.69.54.18.23.32.49.42.79.09.3.14.62.14.95,0,.05,0,.09,0,.14,0,.05,0,.1-.01.15h-3.39c.06.38.21.67.45.87.24.2.54.3.88.3.26,0,.49-.05.68-.14s.38-.23.57-.41l.62.55c-.22.26-.49.47-.79.63-.31.16-.67.24-1.1.24ZM160.9,52.34c-.02-.17-.06-.33-.11-.48-.06-.15-.14-.28-.24-.38s-.22-.19-.35-.26c-.14-.06-.29-.1-.47-.1-.33,0-.59.11-.81.34-.21.22-.34.52-.39.88h2.36Z"/>
    <path class="cls-5" d="M164.92,55.07c-.27,0-.54-.05-.79-.16-.26-.1-.48-.26-.68-.46s-.36-.46-.48-.75c-.12-.3-.18-.64-.18-1.02v-.02c0-.38.06-.73.18-1.02.12-.3.28-.55.48-.75.2-.2.43-.36.69-.46s.53-.16.8-.16c.19,0,.37.02.52.07.15.04.3.1.42.18.13.08.25.16.35.26.1.1.2.2.28.31v-2.48h1.06v6.38h-1.06v-.77c-.17.24-.38.44-.63.61s-.57.25-.94.25ZM165.17,54.15c.17,0,.34-.04.51-.1.16-.07.31-.17.43-.3.12-.13.22-.29.29-.47s.11-.38.11-.6v-.02c0-.22-.04-.42-.11-.61s-.17-.34-.29-.47c-.12-.13-.27-.23-.43-.3-.16-.07-.33-.1-.51-.1s-.35.03-.51.1-.3.17-.43.29c-.12.13-.22.28-.29.47s-.11.39-.11.62v.02c0,.22.04.42.11.61s.17.34.29.47c.12.13.26.23.43.3s.33.1.51.1Z"/>
    <path class="cls-5" d="M171.63,48.85h2.28c.48,0,.92.08,1.32.23.4.15.74.37,1.03.64.29.27.51.6.67.97.16.37.24.77.24,1.2v.02c0,.43-.08.83-.24,1.21s-.38.7-.67.97c-.29.27-.63.49-1.03.65-.4.16-.84.24-1.32.24h-2.28v-6.12ZM172.7,49.83v4.16h1.21c.32,0,.61-.05.87-.15.26-.1.49-.24.67-.43.18-.18.33-.4.43-.66.1-.25.15-.53.15-.83v-.02c0-.3-.05-.57-.15-.83-.1-.26-.25-.48-.43-.66s-.41-.33-.67-.43c-.26-.1-.55-.16-.87-.16h-1.21Z"/>
    <path class="cls-5" d="M179.67,55.07c-.21,0-.42-.03-.62-.09s-.37-.15-.52-.27-.27-.27-.36-.45c-.09-.18-.14-.38-.14-.62v-.02c0-.25.05-.47.14-.66.09-.19.22-.34.39-.46s.37-.21.6-.28c.24-.06.49-.09.77-.09.26,0,.49.02.68.05.19.04.38.08.56.14v-.11c0-.33-.1-.58-.29-.75-.2-.17-.48-.25-.85-.25-.26,0-.5.03-.7.08-.2.05-.41.12-.62.21l-.28-.83c.26-.12.52-.21.79-.28.27-.07.59-.1.95-.1.69,0,1.2.17,1.53.52.17.17.29.37.38.61.08.24.12.51.12.81v2.74h-1.03v-.58c-.16.19-.36.35-.6.48-.25.13-.55.2-.9.2ZM179.97,54.3c.17,0,.34-.02.49-.07s.28-.11.39-.2c.11-.09.19-.19.26-.31.06-.12.1-.26.1-.4v-.31c-.13-.05-.29-.1-.47-.13-.18-.03-.37-.05-.58-.05-.34,0-.61.07-.8.2-.19.13-.28.32-.28.57v.02c0,.22.09.39.26.52s.39.18.64.18Z"/>
    <path class="cls-5" d="M184.98,55.05c-.19,0-.37-.02-.53-.07-.16-.05-.3-.12-.42-.23-.12-.1-.21-.24-.28-.42-.06-.17-.1-.39-.1-.64v-2.43h-.59v-.91h.59v-1.27h1.06v1.27h1.24v.91h-1.24v2.26c0,.2.05.35.15.44.1.09.24.14.42.14.23,0,.45-.05.66-.16v.87c-.13.08-.28.13-.42.17-.15.04-.33.06-.53.06Z"/>
    <path class="cls-5" d="M188.35,55.07c-.21,0-.42-.03-.62-.09s-.37-.15-.52-.27-.27-.27-.36-.45c-.09-.18-.14-.38-.14-.62v-.02c0-.25.05-.47.14-.66.09-.19.22-.34.39-.46s.37-.21.6-.28c.24-.06.49-.09.77-.09.26,0,.49.02.68.05.19.04.38.08.56.14v-.11c0-.33-.1-.58-.29-.75-.2-.17-.48-.25-.85-.25-.26,0-.5.03-.7.08-.2.05-.41.12-.62.21l-.28-.83c.26-.12.52-.21.79-.28.27-.07.59-.1.95-.1.69,0,1.2.17,1.53.52.17.17.29.37.38.61.08.24.12.51.12.81v2.74h-1.03v-.58c-.16.19-.36.35-.6.48-.25.13-.55.2-.9.2ZM188.65,54.3c.17,0,.34-.02.49-.07s.28-.11.39-.2c.11-.09.19-.19.26-.31.06-.12.1-.26.1-.4v-.31c-.13-.05-.29-.1-.47-.13-.18-.03-.37-.05-.58-.05-.34,0-.61.07-.8.2-.19.13-.28.32-.28.57v.02c0,.22.09.39.26.52s.39.18.64.18Z"/>
    <path class="cls-5" d="M196.11,55.07c-.21,0-.42-.03-.62-.09s-.37-.15-.52-.27-.27-.27-.36-.45c-.09-.18-.14-.38-.14-.62v-.02c0-.25.05-.47.14-.66.09-.19.22-.34.39-.46s.37-.21.6-.28c.24-.06.49-.09.77-.09.26,0,.49.02.68.05.19.04.38.08.56.14v-.11c0-.33-.1-.58-.29-.75-.2-.17-.48-.25-.85-.25-.26,0-.5.03-.7.08-.2.05-.41.12-.62.21l-.28-.83c.26-.12.52-.21.79-.28.27-.07.59-.1.95-.1.69,0,1.2.17,1.53.52.17.17.29.37.38.61.08.24.12.51.12.81v2.74h-1.03v-.58c-.16.19-.36.35-.6.48-.25.13-.55.2-.9.2ZM196.41,54.3c.17,0,.34-.02.49-.07s.28-.11.39-.2c.11-.09.19-.19.26-.31.06-.12.1-.26.1-.4v-.31c-.13-.05-.29-.1-.47-.13-.18-.03-.37-.05-.58-.05-.34,0-.61.07-.8.2-.19.13-.28.32-.28.57v.02c0,.22.09.39.26.52s.39.18.64.18Z"/>
    <path class="cls-5" d="M199.91,50.36h1.06v.71c.08-.1.16-.21.25-.31s.2-.19.31-.26c.12-.07.25-.13.39-.17.14-.04.3-.07.49-.07.52,0,.93.16,1.22.48.29.32.43.75.43,1.29v2.95h-1.06v-2.62c0-.36-.09-.64-.26-.83s-.42-.29-.73-.29-.56.1-.75.3c-.19.2-.29.48-.29.84v2.61h-1.06v-4.62Z"/>
    <path class="cls-5" d="M207.24,55.07c-.27,0-.54-.05-.79-.16-.26-.1-.48-.26-.68-.46s-.36-.46-.48-.75c-.12-.3-.18-.64-.18-1.02v-.02c0-.38.06-.73.18-1.02.12-.3.28-.55.48-.75.2-.2.43-.36.69-.46s.53-.16.8-.16c.19,0,.37.02.52.07.15.04.3.1.42.18.13.08.25.16.35.26.1.1.2.2.28.31v-2.48h1.06v6.38h-1.06v-.77c-.17.24-.38.44-.63.61s-.57.25-.94.25ZM207.49,54.15c.17,0,.34-.04.51-.1.16-.07.31-.17.43-.3.12-.13.22-.29.29-.47s.11-.38.11-.6v-.02c0-.22-.04-.42-.11-.61s-.17-.34-.29-.47c-.12-.13-.27-.23-.43-.3-.16-.07-.33-.1-.51-.1s-.35.03-.51.1-.3.17-.43.29c-.12.13-.22.28-.29.47s-.11.39-.11.62v.02c0,.22.04.42.11.61s.17.34.29.47c.12.13.26.23.43.3s.33.1.51.1Z"/>
    <path class="cls-5" d="M86.59,59.35h4.54v.96h-3.46v1.59h3.07v.96h-3.07v1.64h3.51v.96h-4.58v-6.12Z"/>
    <path class="cls-5" d="M92.32,60.85h1.06v.77c.17-.24.38-.44.63-.61.25-.17.56-.25.94-.25.27,0,.53.05.79.16.26.1.49.26.69.46.2.2.36.45.48.75.12.3.18.64.18,1.02v.02c0,.38-.06.73-.18,1.02-.12.3-.28.55-.48.75s-.43.36-.69.46c-.26.1-.52.16-.79.16-.38,0-.7-.08-.95-.24-.25-.16-.46-.35-.62-.57v2.12h-1.06v-6.02ZM94.7,64.65c.18,0,.35-.04.51-.1.16-.07.3-.17.42-.29.12-.13.21-.28.28-.46.07-.18.11-.39.11-.62v-.02c0-.22-.04-.42-.11-.61-.07-.18-.16-.34-.28-.47-.12-.13-.26-.23-.42-.3-.16-.07-.33-.1-.51-.1s-.35.04-.52.1c-.16.07-.31.17-.43.3-.12.13-.22.29-.29.47s-.11.38-.11.6v.02c0,.22.04.42.11.6s.17.34.29.47.26.23.43.3c.16.07.33.1.52.1Z"/>
    <path class="cls-5" d="M98.21,59.14h1.14v1.01h-1.14v-1.01ZM98.25,60.85h1.06v4.62h-1.06v-4.62Z"/>
    <path class="cls-5" d="M102.6,65.56c-.27,0-.54-.05-.79-.16-.26-.1-.48-.26-.68-.46s-.36-.46-.48-.75c-.12-.3-.18-.64-.18-1.02v-.02c0-.38.06-.73.18-1.02.12-.3.28-.55.48-.75.2-.2.43-.36.69-.46s.53-.16.8-.16c.19,0,.37.02.52.07.15.04.3.1.42.18.13.08.25.16.35.26.1.1.2.2.28.31v-2.48h1.06v6.38h-1.06v-.77c-.17.24-.38.44-.63.61s-.57.25-.94.25ZM102.85,64.65c.17,0,.34-.04.51-.1.16-.07.31-.17.43-.3.12-.13.22-.29.29-.47s.11-.38.11-.6v-.02c0-.22-.04-.42-.11-.61s-.17-.34-.29-.47c-.12-.13-.27-.23-.43-.3-.16-.07-.33-.1-.51-.1s-.35.03-.51.1-.3.17-.43.29c-.12.13-.22.28-.29.47s-.11.39-.11.62v.02c0,.22.04.42.11.61s.17.34.29.47c.12.13.26.23.43.3s.33.1.51.1Z"/>
    <path class="cls-5" d="M108.68,65.57c-.33,0-.64-.06-.93-.17-.29-.12-.54-.28-.75-.49-.21-.21-.38-.46-.51-.76-.12-.29-.18-.62-.18-.98v-.02c0-.33.06-.64.17-.94.11-.29.27-.55.47-.77.2-.22.44-.39.71-.52s.58-.19.91-.19c.37,0,.69.07.97.2.28.13.51.31.69.54.18.23.32.49.42.79.09.3.14.62.14.95,0,.05,0,.09,0,.14,0,.05,0,.1-.01.15h-3.39c.06.38.21.67.45.87.24.2.54.3.88.3.26,0,.49-.05.68-.14s.38-.23.57-.41l.62.55c-.22.26-.49.47-.79.63-.31.16-.67.24-1.1.24ZM109.73,62.84c-.02-.17-.06-.33-.11-.48-.06-.15-.14-.28-.24-.38s-.22-.19-.35-.26c-.14-.06-.29-.1-.47-.1-.33,0-.59.11-.81.34-.21.22-.34.52-.39.88h2.36Z"/>
    <path class="cls-5" d="M111.84,60.85h1.06v.7c.08-.1.16-.2.25-.3.09-.09.19-.18.3-.25.11-.08.24-.14.38-.18.14-.04.3-.07.48-.07.33,0,.62.07.85.22.23.15.41.35.53.59.19-.24.41-.44.66-.59.25-.15.55-.22.9-.22.51,0,.9.15,1.19.46.29.31.43.74.43,1.31v2.95h-1.06v-2.62c0-.37-.08-.65-.25-.84s-.39-.29-.69-.29-.53.1-.71.29-.28.48-.28.85v2.61h-1.06v-2.63c0-.36-.08-.64-.25-.83s-.39-.29-.69-.29-.54.1-.72.31c-.18.2-.27.48-.27.84v2.61h-1.06v-4.62Z"/>
    <path class="cls-5" d="M120.16,59.14h1.14v1.01h-1.14v-1.01ZM120.21,60.85h1.06v4.62h-1.06v-4.62Z"/>
    <path class="cls-5" d="M124.84,65.57c-.35,0-.67-.06-.97-.19-.3-.13-.56-.3-.78-.51-.22-.22-.39-.47-.51-.76-.12-.29-.18-.6-.18-.93v-.02c0-.33.06-.64.19-.94.13-.29.3-.55.52-.77.22-.22.48-.39.78-.52.3-.13.63-.19.98-.19s.68.06.98.19.56.3.78.52c.22.22.39.47.51.76.12.29.18.6.18.93v.02c0,.33-.06.64-.19.93-.12.29-.3.55-.52.76-.22.22-.48.39-.78.52-.3.13-.63.19-.99.19ZM124.86,64.65c.22,0,.41-.04.58-.12s.32-.18.44-.31c.12-.13.22-.29.28-.46s.1-.37.1-.56v-.02c0-.2-.03-.4-.1-.58-.07-.18-.17-.34-.29-.47-.12-.13-.27-.24-.45-.32s-.36-.12-.57-.12-.4.04-.57.12-.32.18-.44.31c-.12.13-.22.29-.28.47-.06.18-.1.37-.1.57v.02c0,.2.04.4.11.57.07.18.17.33.29.47.12.13.27.24.45.32s.36.12.56.12Z"/>
    <path class="cls-5" d="M128.45,59.08h1.06v6.38h-1.06v-6.38Z"/>
    <path class="cls-5" d="M133.09,65.57c-.35,0-.67-.06-.97-.19-.3-.13-.56-.3-.78-.51-.22-.22-.39-.47-.51-.76-.12-.29-.18-.6-.18-.93v-.02c0-.33.06-.64.19-.94.13-.29.3-.55.52-.77.22-.22.48-.39.78-.52.3-.13.63-.19.98-.19s.68.06.98.19.56.3.78.52c.22.22.39.47.51.76.12.29.18.6.18.93v.02c0,.33-.06.64-.19.93-.12.29-.3.55-.52.76-.22.22-.48.39-.78.52-.3.13-.63.19-.99.19ZM133.11,64.65c.22,0,.41-.04.58-.12s.32-.18.44-.31c.12-.13.22-.29.28-.46s.1-.37.1-.56v-.02c0-.2-.03-.4-.1-.58-.07-.18-.17-.34-.29-.47-.12-.13-.27-.24-.45-.32s-.36-.12-.57-.12-.4.04-.57.12-.32.18-.44.31c-.12.13-.22.29-.28.47-.06.18-.1.37-.1.57v.02c0,.2.04.4.11.57.07.18.17.33.29.47.12.13.27.24.45.32s.36.12.56.12Z"/>
    <path class="cls-5" d="M138.69,66.88c-.77,0-1.46-.19-2.06-.56l.39-.8c.25.15.51.27.77.36.26.09.55.13.87.13.47,0,.83-.12,1.08-.36.25-.24.38-.59.38-1.05v-.36c-.19.25-.42.45-.67.61-.26.16-.57.24-.95.24-.27,0-.54-.05-.79-.15-.25-.1-.47-.24-.67-.42s-.35-.41-.47-.68c-.12-.27-.17-.57-.17-.91v-.02c0-.34.06-.64.17-.91.12-.27.27-.5.47-.68s.42-.33.67-.42c.25-.1.51-.15.78-.15.39,0,.71.08.97.23.25.15.47.34.65.56v-.69h1.06v3.67c0,.77-.2,1.35-.58,1.74-.21.21-.47.37-.79.47-.32.1-.69.15-1.11.15ZM138.78,64.2c.18,0,.35-.03.52-.09.17-.06.31-.15.43-.26.12-.11.22-.24.29-.4.07-.16.11-.33.11-.52v-.02c0-.19-.04-.36-.11-.52-.07-.16-.17-.29-.29-.4-.12-.11-.27-.2-.43-.26-.17-.06-.34-.09-.52-.09s-.36.03-.52.09c-.16.06-.3.15-.42.26s-.21.24-.28.4c-.07.15-.1.33-.1.52v.02c0,.19.04.36.11.52.07.16.16.29.28.4.12.11.26.2.42.26.16.06.33.09.51.09Z"/>
    <path class="cls-5" d="M142.52,59.14h1.14v1.01h-1.14v-1.01ZM142.57,60.85h1.06v4.62h-1.06v-4.62Z"/>
    <path class="cls-5" d="M147.14,65.57c-.34,0-.66-.06-.95-.19-.29-.13-.54-.3-.76-.51-.21-.22-.38-.47-.5-.76-.12-.29-.18-.6-.18-.93v-.02c0-.33.06-.64.18-.93.12-.29.29-.55.5-.77.22-.22.47-.39.76-.52.29-.13.61-.19.96-.19.22,0,.41.02.59.06.18.04.34.09.49.16.15.07.29.15.41.25.12.1.24.21.35.32l-.66.71c-.16-.17-.34-.31-.52-.42-.18-.11-.41-.16-.67-.16-.19,0-.37.04-.53.12s-.3.18-.42.31c-.12.13-.21.29-.28.47-.07.18-.1.37-.1.57v.02c0,.2.03.4.1.58.07.18.16.34.28.47.12.13.27.24.44.31s.36.11.56.11c.25,0,.47-.05.66-.16s.37-.24.54-.41l.64.63c-.23.26-.49.46-.78.62-.29.16-.66.24-1.11.24Z"/>
    <path class="cls-5" d="M151.33,65.56c-.21,0-.42-.03-.62-.09s-.37-.15-.52-.27-.27-.27-.36-.45c-.09-.18-.14-.38-.14-.62v-.02c0-.25.05-.47.14-.66.09-.19.22-.34.39-.46s.37-.21.6-.28c.24-.06.49-.09.77-.09.26,0,.49.02.68.05.19.04.38.08.56.14v-.11c0-.33-.1-.58-.29-.75-.2-.17-.48-.25-.85-.25-.26,0-.5.03-.7.08-.2.05-.41.12-.62.21l-.28-.83c.26-.12.52-.21.79-.28.27-.07.59-.1.95-.1.69,0,1.2.17,1.53.52.17.17.29.37.38.61.08.24.12.51.12.81v2.74h-1.03v-.58c-.16.19-.36.35-.6.48-.25.13-.55.2-.9.2ZM151.62,64.79c.17,0,.34-.02.49-.07s.28-.11.39-.2c.11-.09.19-.19.26-.31.06-.12.1-.26.1-.4v-.31c-.13-.05-.29-.1-.47-.13-.18-.03-.37-.05-.58-.05-.34,0-.61.07-.8.2-.19.13-.28.32-.28.57v.02c0,.22.09.39.26.52s.39.18.64.18Z"/>
    <path class="cls-5" d="M155.19,59.08h1.06v6.38h-1.06v-6.38Z"/>
    <path class="cls-5" d="M160.38,59.35h2.73c.38,0,.73.05,1.02.16s.54.26.74.45c.16.17.29.36.38.59.09.22.13.47.13.73v.02c0,.5-.13.91-.41,1.21-.27.31-.62.52-1.04.64l1.65,2.32h-1.28l-1.5-2.13h-1.35v2.13h-1.08v-6.12ZM163.03,62.38c.38,0,.69-.09.92-.28.23-.18.34-.43.34-.75v-.02c0-.33-.11-.58-.33-.76s-.53-.26-.94-.26h-1.57v2.06h1.57Z"/>
    <path class="cls-5" d="M168.61,65.57c-.33,0-.64-.06-.93-.17-.29-.12-.54-.28-.75-.49-.21-.21-.38-.46-.51-.76-.12-.29-.18-.62-.18-.98v-.02c0-.33.06-.64.17-.94.11-.29.27-.55.47-.77.2-.22.44-.39.71-.52s.58-.19.91-.19c.37,0,.69.07.97.2.28.13.51.31.69.54.18.23.32.49.42.79.09.3.14.62.14.95,0,.05,0,.09,0,.14,0,.05,0,.1-.01.15h-3.39c.06.38.21.67.45.87.24.2.54.3.88.3.26,0,.49-.05.68-.14s.38-.23.57-.41l.62.55c-.22.26-.49.47-.79.63-.31.16-.67.24-1.1.24ZM169.65,62.84c-.02-.17-.06-.33-.11-.48-.06-.15-.14-.28-.24-.38s-.22-.19-.35-.26c-.14-.06-.29-.1-.47-.1-.33,0-.59.11-.81.34-.21.22-.34.52-.39.88h2.36Z"/>
    <path class="cls-5" d="M173.35,65.55c-.33,0-.67-.06-1.01-.17s-.66-.29-.95-.52l.47-.72c.26.19.51.33.77.42s.5.14.74.14.4-.04.53-.14c.12-.09.19-.21.19-.36v-.02c0-.09-.03-.16-.08-.23s-.13-.12-.23-.17c-.1-.05-.21-.09-.33-.13-.12-.04-.25-.08-.39-.12-.17-.05-.34-.1-.51-.17-.17-.06-.33-.15-.46-.25s-.25-.23-.34-.38c-.09-.15-.13-.34-.13-.56v-.02c0-.22.04-.41.13-.59.08-.17.2-.32.35-.45.15-.12.32-.22.52-.28.2-.06.42-.1.64-.1.29,0,.58.05.88.14.3.09.57.22.81.38l-.42.75c-.22-.13-.45-.24-.67-.32-.23-.08-.44-.12-.63-.12-.2,0-.36.04-.48.13-.11.08-.17.19-.17.33v.02c0,.09.03.16.09.22.06.06.13.12.23.17.1.05.21.1.33.14.12.04.25.09.39.13.17.05.34.11.51.18s.32.16.46.26.25.23.34.37c.09.15.13.32.13.53v.02c0,.25-.04.46-.13.64-.09.18-.21.33-.36.45s-.34.21-.55.27c-.21.06-.43.09-.67.09Z"/>
    <path class="cls-5" d="M178.28,65.57c-.33,0-.64-.06-.93-.17-.29-.12-.54-.28-.75-.49-.21-.21-.38-.46-.51-.76-.12-.29-.18-.62-.18-.98v-.02c0-.33.06-.64.17-.94.11-.29.27-.55.47-.77.2-.22.44-.39.71-.52s.58-.19.91-.19c.37,0,.69.07.97.2.28.13.51.31.69.54.18.23.32.49.42.79.09.3.14.62.14.95,0,.05,0,.09,0,.14,0,.05,0,.1-.01.15h-3.39c.06.38.21.67.45.87.24.2.54.3.88.3.26,0,.49-.05.68-.14s.38-.23.57-.41l.62.55c-.22.26-.49.47-.79.63-.31.16-.67.24-1.1.24ZM179.32,62.84c-.02-.17-.06-.33-.11-.48-.06-.15-.14-.28-.24-.38s-.22-.19-.35-.26c-.14-.06-.29-.1-.47-.1-.33,0-.59.11-.81.34-.21.22-.34.52-.39.88h2.36Z"/>
    <path class="cls-5" d="M182.76,65.56c-.21,0-.42-.03-.62-.09s-.37-.15-.52-.27-.27-.27-.36-.45c-.09-.18-.14-.38-.14-.62v-.02c0-.25.05-.47.14-.66.09-.19.22-.34.39-.46s.37-.21.6-.28c.24-.06.49-.09.77-.09.26,0,.49.02.68.05.19.04.38.08.56.14v-.11c0-.33-.1-.58-.29-.75-.2-.17-.48-.25-.85-.25-.26,0-.5.03-.7.08-.2.05-.41.12-.62.21l-.28-.83c.26-.12.52-.21.79-.28.27-.07.59-.1.95-.1.69,0,1.2.17,1.53.52.17.17.29.37.38.61.08.24.12.51.12.81v2.74h-1.03v-.58c-.16.19-.36.35-.6.48-.25.13-.55.2-.9.2ZM183.06,64.79c.17,0,.34-.02.49-.07s.28-.11.39-.2c.11-.09.19-.19.26-.31.06-.12.1-.26.1-.4v-.31c-.13-.05-.29-.1-.47-.13-.18-.03-.37-.05-.58-.05-.34,0-.61.07-.8.2-.19.13-.28.32-.28.57v.02c0,.22.09.39.26.52s.39.18.64.18Z"/>
    <path class="cls-5" d="M186.57,60.85h1.06v1.04c.15-.35.35-.63.62-.84.27-.21.61-.31,1.01-.29v1.12h-.06c-.23,0-.45.04-.64.11s-.36.19-.5.34c-.14.15-.25.34-.32.57-.08.23-.11.5-.11.8v1.76h-1.06v-4.62Z"/>
    <path class="cls-5" d="M192.15,65.57c-.34,0-.66-.06-.95-.19-.29-.13-.54-.3-.76-.51-.21-.22-.38-.47-.5-.76-.12-.29-.18-.6-.18-.93v-.02c0-.33.06-.64.18-.93.12-.29.29-.55.5-.77.22-.22.47-.39.76-.52.29-.13.61-.19.96-.19.22,0,.41.02.59.06.18.04.34.09.49.16.15.07.29.15.41.25.12.1.24.21.35.32l-.66.71c-.16-.17-.34-.31-.52-.42-.18-.11-.41-.16-.67-.16-.19,0-.37.04-.53.12s-.3.18-.42.31c-.12.13-.21.29-.28.47-.07.18-.1.37-.1.57v.02c0,.2.03.4.1.58.07.18.16.34.28.47.12.13.27.24.44.31s.36.11.56.11c.25,0,.47-.05.66-.16s.37-.24.54-.41l.64.63c-.23.26-.49.46-.78.62-.29.16-.66.24-1.11.24Z"/>
    <path class="cls-5" d="M195.01,59.08h1.06v2.47c.08-.1.16-.21.25-.31s.2-.19.31-.26c.12-.07.25-.13.39-.17.14-.04.3-.07.49-.07.52,0,.93.16,1.22.48.29.32.43.75.43,1.29v2.95h-1.06v-2.62c0-.36-.09-.64-.26-.83s-.42-.29-.73-.29-.56.1-.75.3c-.19.2-.29.48-.29.84v2.61h-1.06v-6.38Z"/>
  </g>
  <line class="cls-2" x1="75.55" y1="44.29" x2="210.33" y2="44.29"/>
</svg>